<svg width="608" height="316" viewBox="0 0 608 316" fill="none" xmlns="http://www.w3.org/2000/svg">
<path d="M298 51H166V300.3H298V51Z" fill="#C6C6C6"/>
<path d="M294.404 19.5547H166.711V51.5403H294.404V19.5547Z" fill="#E0E0E0"/>
<path d="M425.645 300.316H294.404V31.9922L425.645 47.985V300.316Z" fill="url(#paint0_linear_7139_80224)"/>
<path d="M425.645 47.9856L294.404 51.5395V19.554L425.645 16V47.9856Z" fill="url(#paint1_linear_7139_80224)"/>
<path d="M425.645 300.317H461.115V58.6482L425.645 47.9863V300.317Z" fill="url(#paint2_linear_7139_80224)"/>
<path d="M35.4704 300.317H0V58.6482L35.4704 47.9863V300.317Z" fill="url(#paint3_linear_7139_80224)"/>
<path d="M361.798 300.315H358.251V17.8294L361.798 17.7227V300.315Z" fill="#A8A8A8"/>
<path d="M35.4707 300.316H166.711V31.9922L35.4707 47.985V300.316Z" fill="url(#paint4_linear_7139_80224)"/>
<path d="M35.4707 47.9856L166.711 51.5395V19.554L35.4707 16V47.9856Z" fill="url(#paint5_linear_7139_80224)"/>
<path d="M102.864 300.315H99.3174V17.7227L102.864 17.8294V300.315Z" fill="#A8A8A8"/>
<path d="M42.5645 55.2891L92.223 56.7106V293.208H42.5645V55.2891Z" fill="url(#paint6_linear_7139_80224)"/>
<path d="M159.617 58.6462V293.207H109.958V57.2246L159.617 58.6462Z" fill="url(#paint7_linear_7139_80224)"/>
<path d="M425.645 16L461.115 26.6619V58.6474L425.645 47.9856V16Z" fill="#E0E0E0"/>
<path d="M35.4704 16L0 26.6619V58.6474L35.4704 47.9856V16Z" fill="#E0E0E0"/>
<path d="M174.053 62.789V62.3803H174.62V59.1107H174.053V58.702H175.685V59.1107H175.117V62.3803H175.685V62.789H174.053ZM176.571 58.702H178.238C178.912 58.702 179.32 59.1107 179.32 59.7504C179.32 60.3901 178.93 60.5678 178.664 60.6211V60.6566C178.948 60.6566 179.462 60.9231 179.462 61.5984C179.462 62.2736 179.019 62.7712 178.416 62.7712H176.571V58.6842V58.702ZM177.068 60.479H178.185C178.575 60.479 178.806 60.2657 178.806 59.9103V59.7148C178.806 59.3594 178.575 59.1463 178.185 59.1463H177.068V60.479ZM177.068 62.3626H178.274C178.7 62.3626 178.948 62.1315 178.948 61.7228V61.5273C178.948 61.1186 178.7 60.8877 178.274 60.8877H177.068V62.3448V62.3626ZM180.384 58.702H181.041L182.211 60.9054H182.247L183.417 58.702H184.056V62.789H183.577V59.3595H183.541L183.204 60.0347L182.229 61.8117L181.253 60.0347L180.917 59.3595H180.881V62.789H180.402V58.702H180.384ZM188.88 63.873H188.33C187.691 63.873 187.425 63.5709 187.425 63.0023V62.8245C186.556 62.6646 186.007 61.9538 186.007 60.7455C186.007 59.3594 186.716 58.6309 187.798 58.6309C188.88 58.6309 189.589 59.3594 189.589 60.7455C189.589 61.9183 189.075 62.6291 188.259 62.8068V63.1267H188.88V63.8552V63.873ZM188.667 61.0475V60.4434C188.667 59.7859 188.348 59.4305 187.815 59.4305C187.283 59.4305 186.964 59.8037 186.964 60.4434V61.0475C186.964 61.705 187.283 62.0604 187.815 62.0604C188.348 62.0604 188.667 61.6872 188.667 61.0475ZM192.107 62.2736H192.072C191.966 62.5757 191.717 62.8601 191.221 62.8601C190.6 62.8601 190.263 62.4158 190.263 61.6517V59.7148H191.132V61.5629C191.132 61.9361 191.256 62.1492 191.575 62.1492C191.841 62.1492 192.125 61.9893 192.125 61.705V59.7148H192.994V62.789H192.125V62.2736H192.107ZM196.027 62.789C195.725 62.789 195.495 62.5758 195.442 62.256H195.406C195.317 62.6469 194.981 62.8601 194.502 62.8601C193.881 62.8601 193.544 62.5047 193.544 61.9716C193.544 61.3141 194.041 61.0121 194.856 61.0121H195.335V60.8165C195.335 60.5144 195.193 60.3368 194.821 60.3368C194.448 60.3368 194.289 60.5145 194.165 60.6922L193.65 60.2302C193.899 59.8748 194.253 59.6437 194.892 59.6437C195.761 59.6437 196.204 60.0347 196.204 60.7633V62.1138H196.488V62.789H196.009H196.027ZM195.371 61.865V61.5096H194.945C194.608 61.5096 194.431 61.6339 194.431 61.8472V61.936C194.431 62.167 194.573 62.256 194.839 62.256C195.122 62.256 195.371 62.1315 195.371 61.865ZM197.091 62.789V59.7148H197.96V60.2302H197.996C198.102 59.9103 198.368 59.6437 198.847 59.6437C199.468 59.6437 199.804 60.088 199.804 60.8521V62.7712H198.935V60.9232C198.935 60.5323 198.829 60.3368 198.51 60.3368C198.226 60.3368 197.96 60.479 197.96 60.781V62.7712H197.091V62.789ZM201.649 62.789C201.046 62.789 200.744 62.4869 200.744 61.9005V60.39H200.319V59.7148H200.532C200.762 59.7148 200.833 59.5904 200.833 59.3949V58.8974H201.613V59.7326H202.216V60.4078H201.613V62.1316H202.181V62.8068H201.667L201.649 62.789ZM204.611 62.2736H204.575C204.469 62.5757 204.221 62.8601 203.724 62.8601C203.103 62.8601 202.766 62.4158 202.766 61.6517V59.7148H203.635V61.5629C203.635 61.9361 203.759 62.1492 204.079 62.1492C204.345 62.1492 204.628 61.9893 204.628 61.705V59.7148H205.497V62.789H204.628V62.2736H204.611ZM206.278 62.789V59.7148H207.147V60.2302H207.182C207.289 59.9103 207.555 59.6437 207.998 59.6437C208.424 59.6437 208.725 59.8569 208.849 60.2656C208.956 59.928 209.311 59.6437 209.789 59.6437C210.375 59.6437 210.712 60.088 210.712 60.8521V62.7712H209.843V60.9232C209.843 60.5323 209.701 60.3368 209.417 60.3368C209.169 60.3368 208.903 60.479 208.903 60.781V62.7712H208.034V60.9232C208.034 60.5323 207.892 60.3368 207.608 60.3368C207.36 60.3368 207.094 60.479 207.094 60.781V62.7712H206.225L206.278 62.789ZM173.805 68.4754L174.159 68.1732C174.443 68.5464 174.78 68.7596 175.259 68.7596C175.844 68.7596 176.163 68.4576 176.163 67.9956C176.163 67.6046 175.951 67.4091 175.419 67.3025L175.082 67.2315C174.337 67.0538 173.929 66.7339 173.929 66.112C173.929 65.3834 174.479 64.9925 175.277 64.9925C175.897 64.9925 176.323 65.2235 176.625 65.6677L176.252 65.9342C176.022 65.6321 175.72 65.4367 175.241 65.4367C174.727 65.4367 174.408 65.6677 174.408 66.112C174.408 66.5029 174.656 66.6806 175.17 66.7872L175.507 66.8583C176.305 67.036 176.642 67.3914 176.642 67.9956C176.642 68.7419 176.11 69.2217 175.241 69.2217C174.585 69.2217 174.124 68.9551 173.805 68.5108V68.4754ZM179.303 66.112H179.764L178.416 69.8258C178.274 70.1812 178.168 70.2878 177.724 70.2878H177.494V69.8791H177.972L178.203 69.2395L177.086 66.112H177.547L178.274 68.1554L178.416 68.653H178.451L178.611 68.1554L179.338 66.112H179.303ZM180.047 68.5997L180.384 68.3332C180.615 68.6175 180.899 68.7952 181.271 68.7952C181.644 68.7952 181.91 68.6175 181.91 68.2976C181.91 68.0666 181.786 67.8889 181.378 67.8178L181.147 67.7823C180.597 67.6935 180.172 67.4803 180.172 66.9116C180.172 66.3075 180.633 66.0231 181.253 66.0231C181.732 66.0231 182.052 66.2008 182.3 66.5029L181.998 66.7872C181.856 66.5918 181.608 66.414 181.218 66.414C180.828 66.414 180.633 66.5917 180.633 66.8761C180.633 67.1604 180.846 67.2848 181.218 67.3381L181.449 67.3736C182.122 67.4802 182.371 67.7646 182.371 68.2266C182.371 68.813 181.945 69.1683 181.253 69.1683C180.704 69.1683 180.331 68.9374 180.065 68.582L180.047 68.5997ZM183.807 69.1151C183.488 69.1151 183.311 68.9018 183.311 68.6175V66.5029H182.814V66.0942H183.098C183.293 66.0942 183.364 66.0231 183.364 65.8276V65.2589H183.79V66.0942H184.446V66.5029H183.79V68.7063H184.41V69.1151H183.825H183.807ZM184.942 67.6224C184.942 66.6628 185.474 66.0408 186.29 66.0408C187.106 66.0408 187.585 66.6628 187.585 67.5157V67.729H185.421V67.8712C185.421 68.3865 185.758 68.7774 186.308 68.7774C186.68 68.7774 186.982 68.5819 187.142 68.262L187.479 68.4931C187.283 68.9018 186.858 69.1861 186.29 69.1861C185.474 69.1861 184.942 68.5641 184.942 67.6046V67.6224ZM185.421 67.3381V67.3736H187.088V67.3025C187.088 66.7694 186.769 66.414 186.29 66.414C185.776 66.414 185.421 66.805 185.421 67.3203V67.3381ZM188.365 69.1151V66.0942H188.826V66.5917H188.844C188.986 66.2896 189.181 66.0231 189.66 66.0231C190.05 66.0231 190.423 66.2008 190.582 66.645C190.689 66.3252 190.99 66.0231 191.504 66.0231C192.125 66.0231 192.48 66.4495 192.48 67.1781V69.1151H192.019V67.2669C192.019 66.7338 191.806 66.4496 191.363 66.4496C190.99 66.4496 190.653 66.6451 190.653 67.0182V69.1151H190.192V67.2669C190.192 66.7338 189.979 66.4496 189.536 66.4496C189.163 66.4496 188.826 66.6451 188.826 67.0182V69.1151H188.365Z" fill="#8D8D8D"/>
<path d="M195.903 65.4715V69.1143H195.406V65.4715H194.111V65.0449H197.197V65.4715H195.903Z" fill="#8D8D8D"/>
<path d="M197.268 66.1113H197.729L198.048 67.4085L198.367 68.7234L198.74 67.4085L199.112 66.1113H199.52L199.91 67.4085L200.283 68.7234L200.584 67.4085L200.904 66.1113H201.347L200.549 69.1322H199.964L199.538 67.6751L199.272 66.751L199.024 67.6751L198.598 69.1322H198.031L197.232 66.1113H197.268Z" fill="#8D8D8D"/>
<path d="M201.809 67.6206C201.809 66.661 202.358 66.0391 203.174 66.0391C203.99 66.0391 204.54 66.661 204.54 67.6206C204.54 68.5802 203.99 69.2021 203.174 69.2021C202.358 69.2021 201.809 68.5802 201.809 67.6206ZM204.025 67.8338V67.4074C204.025 66.7677 203.671 66.4656 203.174 66.4656C202.678 66.4656 202.323 66.7677 202.323 67.4074V67.8338C202.323 68.4735 202.678 68.7757 203.174 68.7757C203.671 68.7757 204.025 68.4735 204.025 67.8338Z" fill="#8D8D8D"/>
<path d="M194.697 292.765C194.697 292.765 194.75 292.765 194.75 292.711V292.676C194.75 292.676 194.732 292.622 194.697 292.622H194.608V292.747H194.697V292.765ZM194.608 292.996H194.502V292.551H194.697C194.803 292.551 194.839 292.605 194.839 292.694C194.839 292.765 194.803 292.8 194.75 292.818L194.856 292.996H194.732L194.644 292.836H194.59V292.996H194.608ZM194.998 292.8V292.747C194.998 292.569 194.856 292.427 194.679 292.427C194.502 292.427 194.36 292.569 194.36 292.747V292.8C194.36 292.978 194.502 293.12 194.679 293.12C194.856 293.12 194.998 292.978 194.998 292.8ZM194.253 292.782C194.253 292.534 194.448 292.356 194.679 292.356C194.91 292.356 195.105 292.551 195.105 292.782C195.105 293.013 194.91 293.209 194.679 293.209C194.448 293.209 194.253 293.013 194.253 292.782ZM188.188 285.799L187.993 285.248H184.836V285.799H188.188ZM188.543 286.847L188.348 286.296H184.818V286.847H188.543ZM190.901 293.191H193.65V292.64H190.901V293.191ZM190.901 292.125H193.65V291.574H190.901V292.125ZM190.901 291.076H192.551V290.526H190.901V291.076ZM192.551 289.459H190.901V290.01H192.551V289.459ZM190.901 288.962H192.551V288.411H189.394L189.234 288.855L189.075 288.411H185.918V288.962H187.567V288.447L187.745 288.962H190.706L190.884 288.447V288.962H190.901ZM192.551 287.363H189.766L189.571 287.914H192.551V287.363ZM185.936 290.01H187.585V289.459H185.936V290.01ZM185.936 291.076H187.585V290.526H185.936V291.076ZM184.836 292.125H187.585V291.574H184.836V292.125ZM184.836 293.191H187.585V292.64H184.836V293.191ZM190.494 285.248L190.298 285.799H193.65V285.248H190.494ZM189.944 286.847H193.668V286.296H190.139L189.944 286.847ZM185.936 287.914H188.915L188.72 287.363H185.936V287.914ZM188.135 290.01H190.352L190.547 289.459H187.94L188.135 290.01ZM188.507 291.076H189.979L190.174 290.526H188.312L188.507 291.076ZM188.88 292.125H189.607L189.802 291.574H188.685L188.88 292.125ZM189.252 293.191L189.447 292.64H189.057L189.252 293.191ZM178.221 293.191H182.282C182.832 293.191 183.328 292.978 183.701 292.64H178.221V293.191ZM182.53 290.526V291.076H184.393C184.393 290.881 184.375 290.703 184.322 290.526H182.548H182.53ZM179.32 291.076H180.97V290.526H179.32V291.076ZM182.53 287.914H184.304C184.357 287.736 184.375 287.558 184.375 287.363H182.513V287.914H182.53ZM179.32 287.914H180.97V287.363H179.32V287.914ZM182.282 285.248H178.221V285.799H183.701C183.328 285.461 182.832 285.248 182.282 285.248ZM184.109 286.296H178.221V286.847H184.322C184.268 286.652 184.197 286.456 184.091 286.296M179.32 288.411V288.962H183.648C183.825 288.802 183.985 288.624 184.109 288.411H179.32ZM183.648 289.459H179.32V290.01H184.109C183.985 289.797 183.825 289.619 183.648 289.459ZM178.221 292.125H184.109C184.215 291.947 184.286 291.77 184.339 291.574H178.238V292.125H178.221ZM173.805 285.799H177.671V285.248H173.805V285.799ZM173.805 286.847H177.671V286.296H173.805V286.847ZM176.554 287.363H174.904V287.914H176.554V287.363ZM174.904 288.962H176.554V288.411H174.904V288.962ZM174.904 290.01H176.554V289.459H174.904V290.01ZM174.904 291.076H176.554V290.526H174.904V291.076ZM173.805 292.125H177.671V291.574H173.805V292.125ZM173.805 292.64H177.671V293.191H173.805V292.64Z" fill="#C6C6C6"/>
<path d="M418.55 55.2891L368.892 56.7106V293.208H418.55V55.2891Z" fill="url(#paint8_linear_7139_80224)"/>
<path d="M301.498 58.6462V293.207H351.157V57.2246L301.498 58.6462Z" fill="url(#paint9_linear_7139_80224)"/>
<path d="M291.44 207.915C289.418 207.915 288.478 205.143 287.964 203.97C287.45 202.797 284.736 195.298 284.736 195.298L291.21 194.285L292.859 199.936C293.178 201.837 295.342 203.294 295.342 203.294L299.492 206.067C300.308 206.564 300.308 207.932 300.308 207.932H291.44V207.915Z" fill="#803D28"/>
<path d="M261.22 289.654V300.316H271.613C273.865 300.316 275.018 297.882 272.482 296.282C269.945 294.683 268.562 293.866 268.314 289.654H261.22Z" fill="#121619"/>
<path d="M238.519 169.923L238.111 168.609C237.933 167.88 237.845 167.151 237.969 166.405L238.465 163.011C238.519 162.691 238.483 162.371 238.394 162.087H238.412L238.111 160.701C238.004 160.186 237.579 159.795 237.047 159.741L235.982 159.599L235.06 158.835C234.422 158.302 233.464 158.498 233.074 159.208L230.91 163.171C230.431 164.059 230.484 165.143 231.07 165.961L232.24 167.596C232.542 168.004 233.074 168.733 233.269 169.461L234.032 172.198" fill="#803D28"/>
<path d="M278.955 200.807V214.472V289.655H261.22V228.563L257.673 289.655H239.938L247.032 200.807H278.955Z" fill="#343A3F"/>
<path d="M258.541 156.383H268.313V200.807H257.672L258.541 156.383Z" fill="white"/>
<path d="M268.313 156.383V200.807H278.955V164.379L268.313 156.383Z" fill="url(#paint10_linear_7139_80224)"/>
<path d="M278.955 204.361L293.143 200.807L283.796 164.877C282.998 161.82 280.604 159.457 277.553 158.693L268.313 156.383L278.955 204.361Z" fill="#BE95FF"/>
<path d="M258.541 156.383L257.672 200.807H242.846C237.951 200.807 233.623 197.626 232.169 192.935L225.749 172.376L238.164 168.822L241.711 179.484L245.542 164.13C246.446 160.505 249.426 157.787 253.097 157.218L258.541 156.383Z" fill="#BE95FF"/>
<path d="M270.584 143.463C270.584 138.523 266.593 134.543 261.681 134.543C257.424 134.543 253.877 137.528 252.991 141.526C252.529 143.712 251.856 144.334 251.483 144.778C251.182 145.151 251.27 145.791 252.015 146.164C252.76 146.538 252.6 147.781 252.6 147.781L252.565 150.18C252.565 151.193 253.239 152.099 254.232 152.33L256.963 152.97C257.903 153.183 258.559 154.019 258.559 154.996V156.382H268.332V152.828C268.332 151.051 268.261 150.607 268.669 149.683L269.733 147.302H269.697C270.247 146.129 270.602 144.832 270.602 143.446L270.584 143.463Z" fill="#803D28"/>
<path d="M241.941 300.316H257.601L257.672 289.654H250.578C250.33 292.746 246.056 294.292 242.261 295.341C238.572 296.354 239.919 300.316 241.941 300.316Z" fill="#121619"/>
<path d="M411.968 215.022H461.627V207.914H121.111V215.022H170.77" fill="#4D5358"/>
<path d="M177.864 215.021H170.77V300.316H177.864V215.021Z" fill="url(#paint11_linear_7139_80224)"/>
<path d="M411.968 215.021H404.874V300.316H411.968V215.021Z" fill="url(#paint12_linear_7139_80224)"/>
<path d="M308.537 207.913H365.29C366.269 207.913 367.063 207.117 367.063 206.136C367.063 205.155 366.269 204.359 365.29 204.359H308.537C307.558 204.359 306.764 205.155 306.764 206.136C306.764 207.117 307.558 207.913 308.537 207.913Z" fill="#6F6F6F"/>
<path d="M308.537 207.913H331.593C332.572 207.913 333.366 207.117 333.366 206.136C333.366 205.155 332.572 204.359 331.593 204.359H308.537C307.557 204.359 306.763 205.155 306.763 206.136C306.763 207.117 307.557 207.913 308.537 207.913Z" fill="#121619"/>
<path d="M337.481 179.482H302.33C301.106 179.482 300.201 180.655 300.521 181.846L306.178 202.974C306.391 203.791 307.136 204.36 307.987 204.36H343.138C344.362 204.36 345.267 203.187 344.947 201.997L339.29 180.869C339.077 180.051 338.332 179.482 337.481 179.482Z" fill="#121619"/>
<path d="M309.476 200.807L304.989 183.037H336.008L340.921 200.807H309.476Z" fill="#343A3F"/>
<path d="M336.487 184.814H305.433L304.954 183.037H336.008L336.487 184.814Z" fill="#21272A"/>
<path d="M315.241 188.369H308.147L307.686 186.592H314.78L315.241 188.369Z" fill="#4D5358"/>
<path d="M338.988 200.806H311.481L308.146 188.367H335.654L338.988 200.806Z" fill="#4D5358"/>
<path d="M316.198 191.922H310.877L310.398 190.145H315.719L316.198 191.922Z" fill="#343A3F"/>
<path d="M335.778 195.475H318.93L317.493 190.145H334.359L335.778 195.475Z" fill="#21272A"/>
<path d="M337.215 200.806H320.348L319.391 197.252H336.257L337.215 200.806Z" fill="#21272A"/>
<path d="M326.52 192.135H319.55L319.443 191.709H326.413L326.52 192.135Z" fill="#F4F4F4"/>
<path d="M330.67 193.911H320.029L319.923 193.484H330.564L330.67 193.911Z" fill="#F4F4F4"/>
<path d="M322.334 200.806H321.891L321.412 199.029H321.873L322.334 200.806Z" fill="#F4F4F4"/>
<path d="M335.44 200.806H323.895L323.416 199.029H334.962L335.44 200.806Z" fill="#F4F4F4"/>
<path d="M380.099 184.19C382.386 182.786 383.309 180.778 384.231 178.024L385.171 174.878C385.26 174.558 385.543 174.31 385.863 174.256C386.306 174.185 386.696 174.576 386.625 175.021L386.04 178.468L393.365 176.478C393.755 176.371 394.145 176.584 394.269 176.975C394.393 177.348 394.198 177.757 393.843 177.917L390.97 179.09L390.846 181.595C390.811 182.431 390.491 183.212 389.942 183.834L388.523 185.487C388.097 185.985 387.53 186.358 386.909 186.571L385.366 187.086C384.71 187.3 384.107 187.619 383.557 188.028L381.305 189.645L380.099 184.207V184.19Z" fill="#FFEFE9"/>
<path d="M333.934 215.021L333.987 275.439H351.722V229.237H363.569V275.439H380.098L383.007 227.425C383.362 221.454 379.034 216.23 373.111 215.484L369.457 215.021H333.934Z" fill="#121619"/>
<path d="M360.253 164.484C360.005 164.68 359.88 164.786 359.685 164.946C359.437 165.142 359.402 165.355 359.419 165.639C359.419 165.87 359.472 166.67 359.526 167.487C359.597 168.784 358.816 169.957 357.593 170.366L355.358 171.112C354.684 171.343 354.223 171.983 354.223 172.694V174.506H343.972L344.114 173.333C344.309 171.432 343.901 169.531 342.961 167.896L341.861 166.012C341.081 164.68 340.638 163.134 340.638 161.499C340.638 156.559 344.628 152.561 349.541 152.561C353.726 152.561 357.238 155.439 358.196 159.349C358.231 159.473 358.266 159.597 358.284 159.704C358.462 160.397 358.621 160.93 358.763 161.374C358.976 162.085 360.129 163.453 360.342 163.738C360.554 164.004 360.519 164.289 360.253 164.484Z" fill="#FFEFE9"/>
<path d="M362.31 179.481L353.035 175.927H354.276V172.373H341.329V175.501L336.204 176.744C334.093 177.26 332.426 178.841 331.806 180.938L325.811 201.142C324.605 205.229 326.733 209.565 330.706 211.076L333.934 212.302V215.02H363.694L362.31 179.481Z" fill="url(#paint13_linear_7139_80224)"/>
<path d="M379.301 286.099H371.426L368.713 283.967V286.099H363.552V275.438H370.646C370.894 278.529 375.168 280.075 378.964 281.124C382.653 282.137 381.305 286.099 379.283 286.099H379.301Z" fill="#121619"/>
<path d="M351.722 275.438V286.099H341.329C339.077 286.099 337.924 283.665 340.46 282.066C342.996 280.466 344.379 279.648 344.628 275.438H351.722Z" fill="#121619"/>
<path d="M349.328 174.506H354.223L359.384 176.283C361.991 177.171 364.066 179.197 365.042 181.791L368.837 191.92L380.099 184.19L386.803 193.395L370.699 206.42C369.493 207.398 368.003 207.931 366.443 207.931C363.623 207.931 361.087 206.172 360.093 203.506L349.328 174.524V174.506Z" fill="#8B3FFC"/>
<path d="M358.036 156.647L357.805 158.14C357.805 158.14 357.309 156.896 356.511 155.918L351.172 162.742L349.825 161.854V161.836C349.488 161.623 349.08 161.498 348.654 161.498C347.554 161.498 346.65 162.333 346.543 163.4V168.304C346.543 171.84 344.114 174.897 340.691 175.678L336.115 176.727V168.784C336.115 165.621 337.765 162.849 340.248 161.303C340.248 161.196 340.248 161.09 340.248 160.983C340.248 158.922 340.957 156.878 342.34 155.225C344.468 152.667 347.856 151.494 351.119 152.205L355.713 153.217C357.273 153.555 358.302 155.066 358.071 156.647H358.036Z" fill="#FA4D56"/>
<path d="M182.759 155.329L169.054 159.006C168.108 159.26 167.546 160.234 167.8 161.182L173.312 181.778C173.565 182.726 174.538 183.289 175.484 183.035L189.189 179.358C190.136 179.104 190.697 178.13 190.443 177.182L184.932 156.586C184.678 155.638 183.705 155.075 182.759 155.329Z" fill="#121619"/>
<path d="M172.774 163.488C173.264 163.488 173.661 163.09 173.661 162.599C173.661 162.109 173.264 161.711 172.774 161.711C172.285 161.711 171.888 162.109 171.888 162.599C171.888 163.09 172.285 163.488 172.774 163.488Z" fill="#343A3F"/>
<path d="M129.465 293.546C128.117 292.338 126.592 290.845 127.053 289.122L120.207 287.273L119.303 290.632C121.573 292.978 124.854 294.275 129.465 293.546Z" fill="#76482C"/>
<path d="M132.693 295.251C131.185 294.789 130.227 294.078 129.465 293.528C124.854 294.274 121.573 292.977 119.303 290.613L117.44 297.561L127.638 300.298H133.065C135.424 300.298 136.967 296.548 132.675 295.233L132.693 295.251Z" fill="#121619"/>
<path d="M129.81 278.808L122.958 276.969L120.204 287.267L127.056 289.107L129.81 278.808Z" fill="#76482C"/>
<path d="M147.643 293.297C146.029 292.48 144.167 291.431 144.167 289.654H137.073V293.137C139.875 294.825 143.369 295.216 147.643 293.315V293.297Z" fill="#76482C"/>
<path d="M152.556 295.18C150.96 294.594 149.169 294.079 147.643 293.297C143.387 295.198 139.875 294.807 137.073 293.119V300.298H153.07C155.429 300.298 156.529 296.584 152.574 295.163L152.556 295.18Z" fill="#121619"/>
<path d="M144.167 278.992H137.073V289.654H144.167V278.992Z" fill="#76482C"/>
<path d="M115.791 172.375L113.751 175.431C112.829 176.817 112.758 178.63 113.556 180.087L121.094 193.699L124.481 173.281L115.773 172.375H115.791Z" fill="#76482C"/>
<path d="M127.354 154.729L115.791 172.374L125.528 178.344L127.354 154.729Z" fill="url(#paint14_linear_7139_80224)"/>
<path d="M142.394 149.273L153.514 163.187C155.996 166.297 156.582 170.526 155.021 174.187L151.261 183.036L153.035 193.698H121.111V188.438C121.111 184.049 121.448 179.66 122.122 175.324L124.126 162.37C124.694 158.709 126.432 155.315 129.092 152.739L132.639 149.273H142.394Z" fill="#FF7EB6"/>
<path d="M153.034 193.697L160.128 282.546H114.017L121.111 193.697H153.034Z" fill="#4A1D8B"/>
<path d="M148.973 139.055C148.228 139.428 148.388 140.672 148.388 140.672L148.423 143.089C148.441 144.102 147.749 144.99 146.756 145.221L144.025 145.879C143.085 146.092 142.429 146.927 142.429 147.887V149.273H132.639L133.011 146.003C133.118 145.008 132.976 144.013 132.568 143.107L131.451 140.619L131.256 140.21C130.706 139.055 130.387 137.74 130.387 136.354C130.387 131.432 134.377 127.434 139.308 127.434C143.546 127.434 147.111 130.419 147.998 134.417C147.998 134.47 148.033 134.541 148.033 134.595C148.512 136.638 149.168 137.242 149.505 137.669C149.824 138.042 149.736 138.682 148.973 139.055Z" fill="#76482C"/>
<path d="M145.16 127.079C144.487 126.972 143.848 127.292 143.476 127.825C143.351 127.079 142.784 126.475 142.004 126.368C141.046 126.226 140.159 126.901 140 127.861V127.701C140.159 126.723 139.485 125.835 138.528 125.693C137.552 125.551 136.665 126.226 136.523 127.203L136.364 128.287C136.488 127.328 135.814 126.439 134.856 126.297C133.881 126.155 132.994 126.83 132.852 127.807L132.657 129.176C132.462 128.909 132.214 128.678 131.877 128.554C130.955 128.216 129.944 128.696 129.607 129.62L124.889 142.787C124.552 143.711 125.031 144.724 125.953 145.062C126.148 145.133 126.361 145.168 126.556 145.168C126.876 145.168 127.195 145.062 127.461 144.902L126.734 147.354C126.468 148.296 127 149.291 127.94 149.557C128.099 149.611 128.277 149.629 128.436 149.629C128.986 149.629 129.5 149.362 129.82 148.936L129.784 149.167C129.642 150.144 130.316 151.032 131.292 151.175C131.38 151.175 131.469 151.192 131.54 151.192C132.409 151.192 133.171 150.553 133.296 149.664L133.367 149.184C133.242 150.144 133.916 151.032 134.874 151.175C134.963 151.175 135.051 151.192 135.122 151.192C135.991 151.192 136.754 150.553 136.878 149.664L136.949 149.184C136.825 150.144 137.499 151.032 138.457 151.175C138.545 151.175 138.634 151.192 138.705 151.192C139.574 151.192 140.337 150.553 140.461 149.664L141.436 142.894C141.684 143.409 142.145 143.818 142.766 143.907C142.855 143.907 142.944 143.925 143.015 143.925C143.884 143.925 144.646 143.285 144.77 142.396L146.668 129.087C146.81 128.109 146.136 127.221 145.16 127.079Z" fill="#121619"/>
<path d="M156.103 189.807C152.538 192.81 147.164 192.063 144.54 188.207L137.091 177.261L151.403 172.375L153.035 179.483L164.616 174.791C165.485 174.436 166.23 173.814 166.726 172.997L167.861 171.131C168.376 170.278 169.227 169.691 170.22 169.514L176.782 168.305C177.882 168.074 178.361 169.336 177.03 169.691L177.917 169.46C179.407 169.069 179.513 170.42 178.361 170.758L177.846 170.917C178.609 170.686 179.035 171.682 178.095 172.055L177.492 172.268C177.651 172.623 177.527 172.872 176.977 173.174C176.427 173.476 173.572 174.862 173.572 174.862C173.572 174.862 161.157 185.56 156.103 189.825V189.807Z" fill="#76482C"/>
<path d="M455.81 204.359H430.981C430.001 204.359 429.207 205.155 429.207 206.136C429.207 207.118 430.001 207.913 430.981 207.913H455.81C456.789 207.913 457.583 207.118 457.583 206.136C457.583 205.155 456.789 204.359 455.81 204.359Z" fill="#121619"/>
<path d="M422.115 179.984L429.221 206.554C429.474 207.502 430.447 208.065 431.393 207.811C432.339 207.557 432.9 206.582 432.647 205.634L425.541 179.064C425.288 178.116 424.315 177.553 423.369 177.807C422.423 178.061 421.862 179.036 422.115 179.984Z" fill="#121619"/>
<path d="M472.268 199.029H471.133C469.59 199.029 468.1 198.425 467 197.324L452.794 183.161L447.509 181.722C446.569 181.473 446.286 180.265 447.155 180.016C445.594 179.998 445.15 178.559 446.073 178.079C444.76 177.67 444.991 176.018 446.215 175.947C445.026 175.556 445.257 173.921 446.374 173.974L450.773 174.187L450.081 170.544C450.081 170.544 449.974 169.816 450.453 169.407C450.773 169.141 451.269 169.283 451.411 169.692C451.659 170.58 452.298 172.108 454.018 174.88L457.884 180.371L471.079 190.038L472.268 199.029Z" fill="#D3745A"/>
<path d="M489.08 186.695L471.079 190.036V203.079L489.648 202.404L489.08 186.695Z" fill="#21272A"/>
<path d="M497.984 179.321C497.683 180.28 497.807 181.204 497.895 182.271L498.605 188.934L489.081 186.695L488.78 185.291C488.655 184.332 487.893 183.585 486.935 183.479L484.151 183.177C483.14 183.052 482.342 182.253 482.235 181.24L481.987 178.859C481.987 178.859 481.987 177.597 481.207 177.313C480.408 177.028 480.249 176.406 480.497 175.998C480.816 175.518 481.402 174.825 481.597 172.622V172.586C482.005 168.499 485.179 165.105 489.383 164.59C494.26 163.985 498.711 167.468 499.314 172.373C499.492 173.741 499.314 175.074 498.924 176.3L497.984 179.321Z" fill="#D3745A"/>
<path d="M499.421 175.395C498.818 177.243 498.109 178.895 497.789 180.708L496.725 180.228C494.916 179.428 493.639 177.474 493.533 175.484C493.533 175.395 493.533 175.306 493.515 175.217C493.373 174.062 492.327 173.227 491.156 173.369C490.234 173.476 489.542 174.151 489.347 175.004L489.241 173.191C489.188 172.303 488.656 171.503 487.822 171.112C487.006 170.721 486.474 169.922 486.421 169.033L486.368 168.269H483.211C483.211 168.269 486.847 162.334 493.817 164.679C500.787 167.043 500.024 173.547 499.421 175.395Z" fill="#343A3F"/>
<path d="M441.107 283.79L449.39 286.012L453.078 283.879L452.387 286.811L456.324 287.86L459.073 277.553L452.227 275.705C451.181 278.637 446.676 279.01 442.721 279.046C438.89 279.046 439.174 283.239 441.125 283.773L441.107 283.79Z" fill="#4D5358"/>
<path d="M511.285 229.236H467.976C460.953 229.236 454.674 233.59 452.209 240.182L440.061 272.648L459.853 278.992L470.494 248.783H496.813C504.315 248.783 510.398 242.688 510.398 235.171L511.285 229.236Z" fill="#A8A8A8"/>
<path d="M511.144 231.634C512.314 223.123 512.775 214.416 511.356 205.939C509.938 197.463 503.837 189.396 497.966 183.123L489.063 186.695L478.724 211.786L479.344 229.236L511.126 231.634H511.144Z" fill="url(#paint15_linear_7139_80224)"/>
<path d="M488.247 217.793L485.055 221.382C482.519 224.261 478.103 224.385 475.407 221.684L461.095 207.273C460.811 207.006 460.456 206.864 460.066 206.864H459.889C459.57 206.864 459.25 206.971 459.002 207.166L458.577 207.504C458.257 207.771 457.849 207.913 457.441 207.913H452.954C452.369 207.93 451.944 207.344 452.139 206.793L453.22 203.772L449.195 204.305C449.195 204.305 449.106 204.323 449.053 204.323C448.574 204.323 448.13 203.986 448.006 203.506C447.953 203.293 448.095 203.079 448.308 203.026L454.586 201.587C454.586 201.587 454.675 201.551 454.71 201.569C454.817 201.533 454.923 201.516 455.03 201.516H461.822C462.904 201.516 463.968 201.835 464.855 202.422L488.247 217.793Z" fill="#D3745A"/>
<path d="M454.71 201.551C454.71 201.551 454.639 201.569 454.586 201.586L454.71 201.551Z" fill="#D3745A"/>
<path d="M478.812 211.593L485.96 194.232C487.662 190.091 492.433 188.155 496.548 189.932C500.609 191.691 502.471 196.4 500.733 200.469L492.007 220.3L478.812 211.593Z" fill="#343A3F"/>
<path d="M498.871 280.77H459.854" stroke="#21272A" stroke-width="4" stroke-miterlimit="10"/>
<path d="M527.248 197.252H519.551C516.89 197.252 514.656 199.207 514.283 201.854L509.974 232.791L518.38 234.249L523.701 202.583L527.248 197.252Z" fill="#0F62FE"/>
<path d="M510.399 238.122C525.562 238.122 537.888 250.472 537.888 265.665C537.888 280.859 525.562 293.209 510.399 293.209C495.235 293.209 482.909 280.859 482.909 265.665C482.909 250.472 495.235 238.122 510.399 238.122ZM510.399 234.568C493.249 234.568 479.362 248.5 479.362 265.665C479.362 282.831 493.249 296.763 510.399 296.763C527.549 296.763 541.435 282.831 541.435 265.665C541.435 248.5 527.549 234.568 510.399 234.568Z" fill="#4D5358"/>
<path d="M510.399 234.568C527.514 234.568 541.436 248.517 541.436 265.665C541.436 282.813 527.514 296.762 510.399 296.762C493.285 296.762 479.362 282.813 479.362 265.665C479.362 248.517 493.285 234.568 510.399 234.568ZM510.399 231.014C491.298 231.014 475.815 246.527 475.815 265.665C475.815 284.803 491.298 300.316 510.399 300.316C529.5 300.316 544.983 284.803 544.983 265.665C544.983 246.527 529.5 231.014 510.399 231.014Z" fill="#21272A"/>
<path d="M472.269 300.317C477.166 300.317 481.137 296.339 481.137 291.432C481.137 286.525 477.166 282.547 472.269 282.547C467.372 282.547 463.401 286.525 463.401 291.432C463.401 296.339 467.372 300.317 472.269 300.317Z" fill="#21272A"/>
<path d="M472.269 296.763C475.207 296.763 477.589 294.377 477.589 291.432C477.589 288.488 475.207 286.102 472.269 286.102C469.33 286.102 466.948 288.488 466.948 291.432C466.948 294.377 469.33 296.763 472.269 296.763Z" fill="#4D5358"/>
<path d="M440.611 285.424L456.307 289.654L470.495 248.783H516.607" stroke="#21272A" stroke-width="4" stroke-miterlimit="10"/>
<path d="M470.495 248.784V231.014C470.495 227.087 473.67 223.906 477.589 223.906H520.154" stroke="#21272A" stroke-width="4" stroke-miterlimit="10"/>
<path d="M539.662 199.029H527.212C524.516 199.029 522.246 201.055 521.927 203.738L516.606 248.785V289.655" stroke="#21272A" stroke-width="4" stroke-miterlimit="10"/>
<path d="M525.474 287.877H498.871V248.783" stroke="#21272A" stroke-width="4" stroke-miterlimit="10"/>
<path d="M510.399 286.101C521.663 286.101 530.795 276.952 530.795 265.666C530.795 254.38 521.663 245.23 510.399 245.23C499.135 245.23 490.004 254.38 490.004 265.666C490.004 276.952 499.135 286.101 510.399 286.101Z" fill="#343A3F"/>
<path d="M510.399 282.546C519.704 282.546 527.248 274.988 527.248 265.664C527.248 256.341 519.704 248.783 510.399 248.783C501.094 248.783 493.551 256.341 493.551 265.664C493.551 274.988 501.094 282.546 510.399 282.546Z" fill="#0F62FE"/>
<path d="M510.399 273.663C514.806 273.663 518.38 270.083 518.38 265.666C518.38 261.25 514.806 257.67 510.399 257.67C505.991 257.67 502.418 261.25 502.418 265.666C502.418 270.083 505.991 273.663 510.399 273.663Z" fill="#21272A"/>
<path d="M470.495 282.547H474.042V291.432C474.042 292.409 473.244 293.209 472.269 293.209C471.293 293.209 470.495 292.409 470.495 291.432V282.547Z" fill="#21272A"/>
<path d="M252.351 239.897H213.334C209.414 239.897 206.24 236.717 206.24 232.79C206.24 230.835 207.818 229.236 209.787 229.236H255.898C257.849 229.236 259.445 230.835 259.445 232.79C259.445 236.717 256.271 239.897 252.351 239.897Z" fill="#D2745A"/>
<path d="M217.342 197.252H244.778C247.155 197.252 249.248 198.833 249.886 201.126L253.291 213.085C254.586 217.634 251.181 222.147 246.463 222.147H215.622C210.904 222.147 207.499 217.634 208.794 213.085L212.199 201.126C212.855 198.833 214.948 197.252 217.307 197.252H217.342Z" fill="#D2745A"/>
<path d="M223.975 211.466H234.616C235.596 211.466 236.39 210.67 236.39 209.689C236.39 208.707 235.596 207.912 234.616 207.912H223.975C222.996 207.912 222.201 208.707 222.201 209.689C222.201 210.67 222.996 211.466 223.975 211.466Z" fill="#4D5358"/>
<path d="M231.069 268.33H234.616V239.898H231.069V268.33Z" fill="url(#paint16_linear_7139_80224)"/>
<path d="M231.069 286.102H234.616V268.332H231.069V286.102Z" fill="white"/>
<path d="M206.24 289.654H259.445V286.1H206.24V289.654Z" fill="white"/>
<path d="M232.843 300.317C234.802 300.317 236.39 298.726 236.39 296.763C236.39 294.8 234.802 293.209 232.843 293.209C230.884 293.209 229.296 294.8 229.296 296.763C229.296 298.726 230.884 300.317 232.843 300.317Z" fill="white"/>
<path d="M255.899 300.317C257.858 300.317 259.446 298.726 259.446 296.763C259.446 294.8 257.858 293.209 255.899 293.209C253.94 293.209 252.352 294.8 252.352 296.763C252.352 298.726 253.94 300.317 255.899 300.317Z" fill="white"/>
<path d="M209.787 300.317C211.746 300.317 213.334 298.726 213.334 296.763C213.334 294.8 211.746 293.209 209.787 293.209C207.828 293.209 206.24 294.8 206.24 296.763C206.24 298.726 207.828 300.317 209.787 300.317Z" fill="white"/>
<path d="M255.898 296.762H259.445V289.654H255.898V296.762Z" fill="white"/>
<path d="M231.069 296.762H234.616V289.654H231.069V296.762Z" fill="white"/>
<path d="M206.24 296.762H209.787V289.654H206.24V296.762Z" fill="white"/>
<path d="M216.881 286.103H248.805V282.549H216.881V286.103Z" fill="#F4F4F4"/>
<path d="M227.522 239.898H231.069V211.467H227.522V239.898Z" fill="#F4F4F4"/>
<path d="M365.858 239.897H326.841C322.921 239.897 319.747 236.717 319.747 232.79C319.747 230.835 321.325 229.236 323.294 229.236H369.405C371.356 229.236 372.952 230.835 372.952 232.79C372.952 236.717 369.778 239.897 365.858 239.897Z" fill="#D2745A"/>
<path d="M330.848 197.252H358.284C360.661 197.252 362.753 198.833 363.392 201.126L366.797 213.085C368.092 217.634 364.687 222.147 359.969 222.147H329.128C324.41 222.147 321.005 217.634 322.3 213.085L325.705 201.126C326.361 198.833 328.454 197.252 330.812 197.252H330.848Z" fill="#D2745A"/>
<path d="M337.481 211.466H348.122C349.101 211.466 349.896 210.67 349.896 209.689C349.896 208.707 349.101 207.912 348.122 207.912H337.481C336.501 207.912 335.707 208.707 335.707 209.689C335.707 210.67 336.501 211.466 337.481 211.466Z" fill="#4D5358"/>
<path d="M344.575 268.33H348.122V239.898H344.575V268.33Z" fill="url(#paint17_linear_7139_80224)"/>
<path d="M344.575 286.102H348.122V268.332H344.575V286.102Z" fill="white"/>
<path d="M319.747 289.654H372.952V286.1H319.747V289.654Z" fill="white"/>
<path d="M346.349 300.317C348.308 300.317 349.896 298.726 349.896 296.763C349.896 294.8 348.308 293.209 346.349 293.209C344.39 293.209 342.802 294.8 342.802 296.763C342.802 298.726 344.39 300.317 346.349 300.317Z" fill="white"/>
<path d="M369.404 300.317C371.363 300.317 372.951 298.726 372.951 296.763C372.951 294.8 371.363 293.209 369.404 293.209C367.445 293.209 365.857 294.8 365.857 296.763C365.857 298.726 367.445 300.317 369.404 300.317Z" fill="white"/>
<path d="M323.293 300.317C325.252 300.317 326.84 298.726 326.84 296.763C326.84 294.8 325.252 293.209 323.293 293.209C321.334 293.209 319.746 294.8 319.746 296.763C319.746 298.726 321.334 300.317 323.293 300.317Z" fill="white"/>
<path d="M369.405 296.762H372.952V289.654H369.405V296.762Z" fill="white"/>
<path d="M344.575 296.762H348.122V289.654H344.575V296.762Z" fill="white"/>
<path d="M319.746 296.762H323.293V289.654H319.746V296.762Z" fill="white"/>
<path d="M330.387 286.103H362.311V282.549H330.387V286.103Z" fill="#F4F4F4"/>
<path d="M341.028 239.898H344.575V211.467H341.028V239.898Z" fill="#F4F4F4"/>
<path d="M117.564 243.455H85.641C81.7215 243.455 78.5469 240.274 78.5469 236.347C78.5469 234.392 80.1253 232.793 82.0939 232.793H121.111C123.062 232.793 124.658 234.392 124.658 236.347C124.658 240.274 121.484 243.455 117.564 243.455Z" fill="#D2745A"/>
<path d="M99.8291 268.331H103.376V243.453H99.8291V268.331Z" fill="url(#paint18_linear_7139_80224)"/>
<path d="M99.8291 286.102H103.376V268.332H99.8291V286.102Z" fill="white"/>
<path d="M75.0005 289.656H128.206V286.102H75.0005V289.656Z" fill="white"/>
<path d="M101.603 300.317C103.562 300.317 105.15 298.726 105.15 296.763C105.15 294.8 103.562 293.209 101.603 293.209C99.6437 293.209 98.0557 294.8 98.0557 296.763C98.0557 298.726 99.6437 300.317 101.603 300.317Z" fill="white"/>
<path d="M124.658 300.317C126.617 300.317 128.205 298.726 128.205 296.763C128.205 294.8 126.617 293.209 124.658 293.209C122.699 293.209 121.111 294.8 121.111 296.763C121.111 298.726 122.699 300.317 124.658 300.317Z" fill="white"/>
<path d="M78.547 300.317C80.506 300.317 82.0941 298.726 82.0941 296.763C82.0941 294.8 80.506 293.209 78.547 293.209C76.5881 293.209 75 294.8 75 296.763C75 298.726 76.5881 300.317 78.547 300.317Z" fill="white"/>
<path d="M124.659 296.764H128.206V289.656H124.659V296.764Z" fill="white"/>
<path d="M99.8291 296.764H103.376V289.656H99.8291V296.764Z" fill="white"/>
<path d="M75 296.764H78.5471V289.656H75V296.764Z" fill="white"/>
<path d="M85.6411 286.103H117.564V282.549H85.6411V286.103Z" fill="#F4F4F4"/>
<path d="M78.5471 236.345H75V218.575C75 216.62 76.5962 215.021 78.5471 215.021V236.345Z" fill="#4D5358"/>
<path d="M80.3204 200.807C85.2153 200.807 89.188 204.787 89.188 209.692V218.363C89.188 222.397 85.907 225.684 81.8811 225.684H80.3204C79.345 225.684 78.5469 224.885 78.5469 223.907V202.584C78.5469 201.606 79.345 200.807 80.3204 200.807Z" fill="#D2745A"/>
<defs>
<linearGradient id="paint0_linear_7139_80224" x1="360.024" y1="-1206.56" x2="360.024" y2="-1206.56" gradientUnits="userSpaceOnUse">
<stop stop-color="#A8A8A8"/>
<stop offset="1" stop-color="#C6C6C6"/>
</linearGradient>
<linearGradient id="paint1_linear_7139_80224" x1="360.024" y1="7.47051" x2="360.024" y2="59.0561" gradientUnits="userSpaceOnUse">
<stop stop-color="#B5B5B5"/>
<stop offset="1" stop-color="#C6C6C6"/>
</linearGradient>
<linearGradient id="paint2_linear_7139_80224" x1="443.38" y1="-1206.56" x2="443.38" y2="-1206.56" gradientUnits="userSpaceOnUse">
<stop offset="0.44" stop-color="#CACACA"/>
<stop offset="0.99" stop-color="#A8A8A8"/>
</linearGradient>
<linearGradient id="paint3_linear_7139_80224" x1="17.7352" y1="59.4656" x2="17.7352" y2="314.106" gradientUnits="userSpaceOnUse">
<stop offset="0.44" stop-color="#CCCCCC"/>
<stop offset="0.99" stop-color="#A8A8A8"/>
</linearGradient>
<linearGradient id="paint4_linear_7139_80224" x1="101.091" y1="-32.3521" x2="101.091" y2="357.001" gradientUnits="userSpaceOnUse">
<stop stop-color="#A8A8A8"/>
<stop offset="1" stop-color="#C6C6C6"/>
</linearGradient>
<linearGradient id="paint5_linear_7139_80224" x1="101.091" y1="7.47051" x2="101.091" y2="59.0561" gradientUnits="userSpaceOnUse">
<stop stop-color="#B0B0B0"/>
<stop offset="1" stop-color="#C6C6C6"/>
</linearGradient>
<linearGradient id="paint6_linear_7139_80224" x1="67.3937" y1="-1206.56" x2="67.3937" y2="-1206.56" gradientUnits="userSpaceOnUse">
<stop stop-color="#C6C6C6"/>
<stop offset="0.99" stop-color="#A8A8A8"/>
</linearGradient>
<linearGradient id="paint7_linear_7139_80224" x1="134.787" y1="0.645706" x2="134.787" y2="343.069" gradientUnits="userSpaceOnUse">
<stop stop-color="#C6C6C6"/>
<stop offset="0.99" stop-color="#A8A8A8"/>
</linearGradient>
<linearGradient id="paint8_linear_7139_80224" x1="393.721" y1="-1.76968" x2="393.721" y2="343.479" gradientUnits="userSpaceOnUse">
<stop stop-color="#C6C6C6"/>
<stop offset="0.99" stop-color="#A8A8A8"/>
</linearGradient>
<linearGradient id="paint9_linear_7139_80224" x1="326.327" y1="0.645706" x2="326.327" y2="343.069" gradientUnits="userSpaceOnUse">
<stop stop-color="#C6C6C6"/>
<stop offset="0.99" stop-color="#A8A8A8"/>
</linearGradient>
<linearGradient id="paint10_linear_7139_80224" x1="268.313" y1="178.595" x2="289.173" y2="182.915" gradientUnits="userSpaceOnUse">
<stop stop-color="#BE95FF"/>
<stop offset="0.25" stop-color="#BC91FE"/>
<stop offset="0.46" stop-color="#B687FE"/>
<stop offset="0.65" stop-color="#AB76FD"/>
<stop offset="0.82" stop-color="#9D5EFD"/>
<stop offset="1" stop-color="#8B3FFC"/>
</linearGradient>
<linearGradient id="paint11_linear_7139_80224" x1="174.317" y1="215.021" x2="174.317" y2="300.316" gradientUnits="userSpaceOnUse">
<stop stop-color="#121619"/>
<stop offset="0.02" stop-color="#13171A"/>
<stop offset="0.26" stop-color="#252A2E"/>
<stop offset="0.5" stop-color="#30363A"/>
<stop offset="0.75" stop-color="#343A3F"/>
</linearGradient>
<linearGradient id="paint12_linear_7139_80224" x1="408.421" y1="215.021" x2="408.421" y2="300.316" gradientUnits="userSpaceOnUse">
<stop stop-color="#121619"/>
<stop offset="0.02" stop-color="#13171A"/>
<stop offset="0.26" stop-color="#252A2E"/>
<stop offset="0.5" stop-color="#30363A"/>
<stop offset="0.75" stop-color="#343A3F"/>
</linearGradient>
<linearGradient id="paint13_linear_7139_80224" x1="372.526" y1="200.716" x2="333.571" y2="191.138" gradientUnits="userSpaceOnUse">
<stop offset="0.25" stop-color="#6929C4"/>
<stop offset="0.4" stop-color="#7933DE"/>
<stop offset="0.55" stop-color="#863BF4"/>
<stop offset="0.65" stop-color="#8B3FFC"/>
</linearGradient>
<linearGradient id="paint14_linear_7139_80224" x1="119.338" y1="160.344" x2="129.651" y2="175.074" gradientUnits="userSpaceOnUse">
<stop offset="0.39" stop-color="#FF7EB6"/>
<stop offset="0.49" stop-color="#FB77B0"/>
<stop offset="0.65" stop-color="#F163A1"/>
<stop offset="0.83" stop-color="#E04488"/>
<stop offset="0.98" stop-color="#D02670"/>
</linearGradient>
<linearGradient id="paint15_linear_7139_80224" x1="479.717" y1="229.591" x2="512.111" y2="197.278" gradientUnits="userSpaceOnUse">
<stop stop-color="#121619"/>
<stop offset="0.08" stop-color="#181C1F"/>
<stop offset="0.35" stop-color="#272C31"/>
<stop offset="0.65" stop-color="#30363B"/>
<stop offset="0.99" stop-color="#343A3F"/>
</linearGradient>
<linearGradient id="paint16_linear_7139_80224" x1="232.843" y1="239.898" x2="232.843" y2="268.33" gradientUnits="userSpaceOnUse">
<stop stop-color="#21272A"/>
<stop offset="0.03" stop-color="#252B2E"/>
<stop offset="0.17" stop-color="#363C40"/>
<stop offset="0.34" stop-color="#43494E"/>
<stop offset="0.56" stop-color="#4A5055"/>
<stop offset="1" stop-color="#4D5358"/>
</linearGradient>
<linearGradient id="paint17_linear_7139_80224" x1="346.349" y1="239.898" x2="346.349" y2="268.33" gradientUnits="userSpaceOnUse">
<stop stop-color="#21272A"/>
<stop offset="0.03" stop-color="#252B2E"/>
<stop offset="0.17" stop-color="#363C40"/>
<stop offset="0.34" stop-color="#43494E"/>
<stop offset="0.56" stop-color="#4A5055"/>
<stop offset="1" stop-color="#4D5358"/>
</linearGradient>
<linearGradient id="paint18_linear_7139_80224" x1="101.602" y1="243.453" x2="101.602" y2="-1206.56" gradientUnits="userSpaceOnUse">
<stop stop-color="#21272A"/>
<stop offset="0.03" stop-color="#252B2E"/>
<stop offset="0.17" stop-color="#363C40"/>
<stop offset="0.34" stop-color="#43494E"/>
<stop offset="0.56" stop-color="#4A5055"/>
<stop offset="1" stop-color="#4D5358"/>
</linearGradient>
</defs>
</svg>
