<svg xmlns="http://www.w3.org/2000/svg" xmlns:xlink="http://www.w3.org/1999/xlink" data-name="Layer 1" viewBox="0 0 1000 840.006"><defs><linearGradient id="e" x1="108.566" x2="1160.027" y1="226.552" y2="716.857" gradientUnits="userSpaceOnUse"><stop offset="0" stop-color="#c1c7cd" stop-opacity=".05"/><stop offset=".12" stop-color="#c1c7cd" stop-opacity=".256"/><stop offset=".272" stop-color="#c1c7cd" stop-opacity=".481"/><stop offset=".424" stop-color="#c1c7cd" stop-opacity=".668"/><stop offset=".574" stop-color="#c1c7cd" stop-opacity=".813"/><stop offset=".722" stop-color="#c1c7cd" stop-opacity=".917"/><stop offset=".865" stop-color="#c1c7cd" stop-opacity=".979"/><stop offset="1" stop-color="#c1c7cd"/></linearGradient><linearGradient id="f" x1="644" x2="644" y1="840.006" y2="59.006" gradientUnits="userSpaceOnUse"><stop offset=".476" stop-color="#c1c7cd"/><stop offset=".558" stop-color="#c1c7cd" stop-opacity=".983"/><stop offset=".632" stop-color="#c1c7cd" stop-opacity=".93"/><stop offset=".703" stop-color="#c1c7cd" stop-opacity=".84"/><stop offset=".772" stop-color="#c1c7cd" stop-opacity=".715"/><stop offset=".839" stop-color="#c1c7cd" stop-opacity=".553"/><stop offset=".905" stop-color="#c1c7cd" stop-opacity=".354"/><stop offset=".969" stop-color="#c1c7cd" stop-opacity=".123"/><stop offset="1" stop-color="#c1c7cd" stop-opacity="0"/></linearGradient><linearGradient id="a" x1="139" x2="139" y1="566.006" y2="85.028" gradientUnits="userSpaceOnUse"><stop offset=".659" stop-color="#c1c7cd"/><stop offset=".698" stop-color="#c1c7cd" stop-opacity=".924"/><stop offset=".775" stop-color="#c1c7cd" stop-opacity=".724"/><stop offset=".881" stop-color="#c1c7cd" stop-opacity=".4"/><stop offset="1" stop-color="#c1c7cd" stop-opacity="0"/></linearGradient><linearGradient id="g" x1="8518.225" x2="8573.834" y1="6554.827" y2="6610.437" gradientTransform="translate(-7958.92 -6074.502)" gradientUnits="userSpaceOnUse"><stop offset="0" stop-color="#be95ff" stop-opacity="0"/><stop offset=".087" stop-color="#be95ff" stop-opacity=".044"/><stop offset=".24" stop-color="#be95ff" stop-opacity=".162"/><stop offset=".443" stop-color="#be95ff" stop-opacity=".354"/><stop offset=".686" stop-color="#be95ff" stop-opacity=".619"/><stop offset=".963" stop-color="#be95ff" stop-opacity=".953"/><stop offset="1" stop-color="#be95ff"/></linearGradient><linearGradient id="c" x1="8609.112" x2="8664.721" y1="6546.237" y2="6601.847" gradientTransform="rotate(-180 4667.513 3541.086)" gradientUnits="userSpaceOnUse"><stop offset="0" stop-color="#be95ff" stop-opacity="0"/><stop offset=".087" stop-color="#be95ff" stop-opacity=".044"/><stop offset=".24" stop-color="#be95ff" stop-opacity=".162"/><stop offset=".443" stop-color="#be95ff" stop-opacity=".354"/><stop offset=".686" stop-color="#be95ff" stop-opacity=".619"/><stop offset=".963" stop-color="#be95ff" stop-opacity=".953"/><stop offset="1" stop-color="#be95ff"/></linearGradient><linearGradient id="d" x1="563.971" x2="475.029" y1="623.11" y2="616.89" gradientUnits="userSpaceOnUse"><stop offset="0" stop-color="#e5f6ff" stop-opacity="0"/><stop offset=".024" stop-color="#d8f0ff" stop-opacity=".022"/><stop offset=".154" stop-color="#9cd9ff" stop-opacity=".123"/><stop offset=".299" stop-color="#6dc7ff" stop-opacity=".202"/><stop offset=".463" stop-color="#4cbaff" stop-opacity=".258"/><stop offset=".663" stop-color="#38b3ff" stop-opacity=".29"/><stop offset="1" stop-color="#33b1ff" stop-opacity=".3"/></linearGradient><linearGradient xlink:href="#a" id="h" x1="756.5" x2="756.5" y1="564.738" y2="171"/><linearGradient id="b" x1="-6493.832" x2="-6413.909" y1="3101.487" y2="3055.603" gradientTransform="matrix(.98432 .70715 -.98453 .70747 9745.294 3122.722)" gradientUnits="userSpaceOnUse"><stop offset="0" stop-color="#fff" stop-opacity="0"/><stop offset=".011" stop-color="#fcfaff" stop-opacity=".041"/><stop offset=".075" stop-color="#ede2ff" stop-opacity=".251"/><stop offset=".141" stop-color="#e1ceff" stop-opacity=".438"/><stop offset=".207" stop-color="#d6bcff" stop-opacity=".596"/><stop offset=".276" stop-color="#cdaeff" stop-opacity=".724"/><stop offset=".346" stop-color="#c6a3ff" stop-opacity=".824"/><stop offset=".418" stop-color="#c19bff" stop-opacity=".894"/><stop offset=".494" stop-color="#be96ff" stop-opacity=".936"/><stop offset=".581" stop-color="#be95ff" stop-opacity=".95"/><stop offset=".619" stop-color="#b78afe" stop-opacity=".956"/><stop offset=".784" stop-color="#9e61fd" stop-opacity=".98"/><stop offset=".917" stop-color="#8f48fc" stop-opacity=".995"/><stop offset="1" stop-color="#8a3ffc"/></linearGradient><linearGradient xlink:href="#b" id="i" x1="-5937.913" x2="-5857.99" y1="3261.16" y2="3215.276" gradientTransform="matrix(.98432 .70715 -.98453 .70747 9861.288 2226.716)"/><linearGradient xlink:href="#c" id="j" x1="8013.225" x2="8068.834" y1="6274.697" y2="6330.307" gradientTransform="translate(-7958.92 -6074.502)"/><linearGradient xlink:href="#c" id="k" x1="9114.112" x2="9169.721" y1="6826.367" y2="6881.976"/><linearGradient xlink:href="#d" id="l" x1="226.971" x2="138.029" y1="343.11" y2="336.89"/></defs><path fill="url(#e)" d="M85.12 62.126c.56-.56.88-1.33.88-2.12 0-.2-.02-.39-.06-.59a2.917 2.917 0 0 0-.45-1.08c-.1-.16-.23-.31-.37-.45-1.12-1.12-3.12-1.12-4.24 0-.14.14-.26.29-.37.45-.11.17-.2.34-.28.52-.07.18-.13.37-.17.56-.04.2-.06.39-.06.59 0 .79.32 1.56.88 2.12s1.33.88 2.12.88 1.56-.32 2.12-.88ZM83 735.006c1.66 0 3-1.351 3-3 0-1.66-1.34-3-3-3s-3 1.34-3 3c0 1.649 1.34 3 3 3Zm0-56c1.66 0 3-1.34 3-3s-1.34-3-3-3-3 1.34-3 3 1.34 3 3 3Zm0-56c1.66 0 3-1.351 3-3 0-1.66-1.34-3-3-3s-3 1.34-3 3c0 1.649 1.34 3 3 3Zm0-56c1.66 0 3-1.34 3-3s-1.34-3-3-3-3 1.34-3 3 1.34 3 3 3Zm0-56c1.66 0 3-1.351 3-3 0-1.66-1.34-3-3-3s-3 1.34-3 3c0 1.649 1.34 3 3 3Zm0-56c1.66 0 3-1.34 3-3s-1.34-3-3-3-3 1.34-3 3 1.34 3 3 3Zm0-56c1.66 0 3-1.34 3-3s-1.34-3-3-3-3 1.34-3 3 1.34 3 3 3Zm0-56c1.66 0 3-1.34 3-3s-1.34-3-3-3-3 1.34-3 3 1.34 3 3 3Zm0-56c1.66 0 3-1.34 3-3s-1.34-3-3-3-3 1.34-3 3 1.34 3 3 3Zm0-56c1.66 0 3-1.34 3-3s-1.34-3-3-3-3 1.34-3 3 1.34 3 3 3Zm0-56c1.66 0 3-1.34 3-3s-1.34-3-3-3-3 1.34-3 3 1.34 3 3 3Zm0-56c1.66 0 3-1.34 3-3s-1.34-3-3-3-3 1.34-3 3 1.34 3 3 3Zm2.12 671.12c.56-.561.88-1.33.88-2.12 0-.19-.02-.391-.06-.59a2.809 2.809 0 0 0-.45-1.071c-.1-.17-.23-.32-.37-.46-.14-.14-.29-.271-.45-.37a2.917 2.917 0 0 0-1.08-.45 2.93 2.93 0 0 0-1.18 0 2.78 2.78 0 0 0-1.07.45 2.762 2.762 0 0 0-.83.83 2.79 2.79 0 0 0-.45 1.071c-.04.199-.06.399-.06.59 0 .79.32 1.56.88 2.12.14.14.29.26.46.37.16.109.33.199.51.279.18.08.37.13.56.17.2.04.4.061.59.061.79 0 1.56-.32 2.12-.88Zm54.47-727.18a2.917 2.917 0 0 0 1.08-.45c.16-.1.31-.23.45-.37.14-.14.26-.29.37-.45a2.917 2.917 0 0 0 .45-1.08 2.953 2.953 0 0 0 0-1.18 2.917 2.917 0 0 0-.45-1.08 3.012 3.012 0 0 0-3.08-1.27c-.19.04-.38.1-.56.17-.18.08-.35.17-.52.28-.16.11-.31.23-.45.37s-.27.29-.37.45a2.917 2.917 0 0 0-.45 1.08 2.953 2.953 0 0 0 0 1.18 2.917 2.917 0 0 0 .45 1.08c.1.16.23.31.37.45.14.14.29.27.45.37a2.917 2.917 0 0 0 1.08.45 2.953 2.953 0 0 0 1.18 0Zm-.59 672.06c1.66 0 3-1.351 3-3 0-1.66-1.34-3-3-3s-3 1.34-3 3c0 1.649 1.34 3 3 3Zm0-56c1.66 0 3-1.34 3-3s-1.34-3-3-3-3 1.34-3 3 1.34 3 3 3Zm0-56c1.66 0 3-1.351 3-3 0-1.66-1.34-3-3-3s-3 1.34-3 3c0 1.649 1.34 3 3 3Zm0-56c1.66 0 3-1.34 3-3s-1.34-3-3-3-3 1.34-3 3 1.34 3 3 3Zm0-56c1.66 0 3-1.351 3-3 0-1.66-1.34-3-3-3s-3 1.34-3 3c0 1.649 1.34 3 3 3Zm0-56c1.66 0 3-1.34 3-3s-1.34-3-3-3-3 1.34-3 3 1.34 3 3 3Zm0-56c1.66 0 3-1.34 3-3s-1.34-3-3-3-3 1.34-3 3 1.34 3 3 3Zm0-56c1.66 0 3-1.34 3-3s-1.34-3-3-3-3 1.34-3 3 1.34 3 3 3Zm0-56c1.66 0 3-1.34 3-3s-1.34-3-3-3-3 1.34-3 3 1.34 3 3 3Zm0-56c1.66 0 3-1.34 3-3s-1.34-3-3-3-3 1.34-3 3 1.34 3 3 3Zm0-56c1.66 0 3-1.34 3-3s-1.34-3-3-3-3 1.34-3 3 1.34 3 3 3Zm0-56c1.66 0 3-1.34 3-3s-1.34-3-3-3-3 1.34-3 3 1.34 3 3 3Zm.59 671.939c.19-.04.38-.09.56-.17.18-.08.35-.17.51-.279.17-.11.32-.23.46-.37.56-.561.88-1.33.88-2.12 0-.19-.02-.391-.06-.59a2.809 2.809 0 0 0-.45-1.071c-.11-.17-.23-.32-.37-.46-.14-.14-.29-.271-.45-.37a2.917 2.917 0 0 0-1.08-.45 2.93 2.93 0 0 0-1.18 0 2.917 2.917 0 0 0-1.08.45c-.16.1-.31.23-.45.37s-.27.29-.37.46a2.79 2.79 0 0 0-.45 1.071c-.04.199-.06.399-.06.59a3.015 3.015 0 0 0 1.33 2.49c.17.109.34.199.52.279.18.08.37.13.56.17.2.04.4.061.59.061.2 0 .39-.021.59-.061Zm57.53-728.819c.56-.56.88-1.33.88-2.12s-.32-1.56-.88-2.12c-1.11-1.12-3.13-1.12-4.24 0-.56.56-.88 1.33-.88 2.12s.32 1.56.88 2.12 1.33.88 2.12.88 1.56-.32 2.12-.88ZM195 735.006c1.66 0 3-1.351 3-3 0-1.66-1.34-3-3-3s-3 1.34-3 3c0 1.649 1.34 3 3 3Zm0-56c1.66 0 3-1.34 3-3s-1.34-3-3-3-3 1.34-3 3 1.34 3 3 3Zm0-56c1.66 0 3-1.351 3-3 0-1.66-1.34-3-3-3s-3 1.34-3 3c0 1.649 1.34 3 3 3Zm0-56c1.66 0 3-1.34 3-3s-1.34-3-3-3-3 1.34-3 3 1.34 3 3 3Zm0-56c1.66 0 3-1.351 3-3 0-1.66-1.34-3-3-3s-3 1.34-3 3c0 1.649 1.34 3 3 3Zm0-56c1.66 0 3-1.34 3-3s-1.34-3-3-3-3 1.34-3 3 1.34 3 3 3Zm0-56c1.66 0 3-1.34 3-3s-1.34-3-3-3-3 1.34-3 3 1.34 3 3 3Zm0-56c1.66 0 3-1.34 3-3s-1.34-3-3-3-3 1.34-3 3 1.34 3 3 3Zm0-56c1.66 0 3-1.34 3-3s-1.34-3-3-3-3 1.34-3 3 1.34 3 3 3Zm0-56c1.66 0 3-1.34 3-3s-1.34-3-3-3-3 1.34-3 3 1.34 3 3 3Zm0-56c1.66 0 3-1.34 3-3s-1.34-3-3-3-3 1.34-3 3 1.34 3 3 3Zm0-56c1.66 0 3-1.34 3-3s-1.34-3-3-3-3 1.34-3 3 1.34 3 3 3Zm.59 671.939c.19-.04.38-.09.56-.17.181-.08.351-.17.511-.279.17-.11.319-.23.46-.37.56-.561.88-1.33.88-2.12 0-.19-.021-.391-.061-.59a2.809 2.809 0 0 0-.449-1.071c-.11-.17-.23-.32-.37-.46a2.327 2.327 0 0 0-.46-.37c-.16-.11-.33-.21-.511-.28a2.78 2.78 0 0 0-.56-.17 2.93 2.93 0 0 0-1.18 0 2.917 2.917 0 0 0-1.08.45c-.16.1-.31.23-.45.37s-.27.29-.37.46c-.11.16-.21.33-.28.51-.07.181-.13.37-.17.561a2.946 2.946 0 0 0 0 1.18c.04.19.1.38.17.56.08.181.17.351.28.511.1.17.23.319.37.46.14.14.29.26.45.37.17.109.34.199.52.279.18.08.37.13.56.17.2.04.39.061.59.061s.39-.021.59-.061Zm57.53-728.819c.56-.56.88-1.33.88-2.12s-.32-1.56-.88-2.12c-.7-.7-1.73-1.02-2.71-.82-.19.04-.38.1-.561.17-.18.08-.35.17-.51.28-.17.11-.32.23-.46.37-.561.56-.88 1.33-.88 2.12s.319 1.56.88 2.12c.14.14.29.26.46.37a2.79 2.79 0 0 0 1.071.45c.199.04.39.06.59.06.79 0 1.56-.32 2.12-.88ZM251 735.006c1.66 0 3-1.351 3-3 0-1.66-1.34-3-3-3s-3 1.34-3 3c0 1.649 1.34 3 3 3Zm0-56c1.66 0 3-1.34 3-3s-1.34-3-3-3-3 1.34-3 3 1.34 3 3 3Zm0-56c1.66 0 3-1.351 3-3 0-1.66-1.34-3-3-3s-3 1.34-3 3c0 1.649 1.34 3 3 3Zm0-56c1.66 0 3-1.34 3-3s-1.34-3-3-3-3 1.34-3 3 1.34 3 3 3Zm0-56c1.66 0 3-1.351 3-3 0-1.66-1.34-3-3-3s-3 1.34-3 3c0 1.649 1.34 3 3 3Zm0-56c1.66 0 3-1.34 3-3s-1.34-3-3-3-3 1.34-3 3 1.34 3 3 3Zm0-56c1.66 0 3-1.34 3-3s-1.34-3-3-3-3 1.34-3 3 1.34 3 3 3Zm0-56c1.66 0 3-1.34 3-3s-1.34-3-3-3-3 1.34-3 3 1.34 3 3 3Zm0-56c1.66 0 3-1.34 3-3s-1.34-3-3-3-3 1.34-3 3 1.34 3 3 3Zm0-56c1.66 0 3-1.34 3-3s-1.34-3-3-3-3 1.34-3 3 1.34 3 3 3Zm0-56c1.66 0 3-1.34 3-3s-1.34-3-3-3-3 1.34-3 3 1.34 3 3 3Zm0-56c1.66 0 3-1.34 3-3s-1.34-3-3-3-3 1.34-3 3 1.34 3 3 3Zm2.12 671.12c.56-.561.88-1.33.88-2.12a3.024 3.024 0 0 0-.231-1.151c-.08-.18-.17-.35-.279-.51a2.37 2.37 0 0 0-.37-.46 2.594 2.594 0 0 0-.45-.37 2.89 2.89 0 0 0-.521-.28 2.76 2.76 0 0 0-.56-.17 2.93 2.93 0 0 0-1.18 0 2.917 2.917 0 0 0-1.081.45c-.16.1-.311.23-.45.37s-.271.29-.38.46c-.101.16-.2.33-.271.51-.08.181-.13.37-.17.561-.04.199-.06.399-.06.59a3.01 3.01 0 0 0 1.33 2.49c.17.109.34.199.52.279.181.08.37.13.561.17.199.04.39.061.59.061.79 0 1.56-.32 2.12-.88Zm54.47-727.18a2.78 2.78 0 0 0 1.071-.45 2.762 2.762 0 0 0 .83-.83c.109-.16.199-.33.279-.51.08-.18.13-.37.17-.56.04-.2.061-.39.061-.59 0-.79-.32-1.56-.88-2.12-1.12-1.12-3.13-1.12-4.24 0a3.01 3.01 0 0 0-.88 2.12c0 .2.02.39.06.59a2.78 2.78 0 0 0 .45 1.07c.1.17.23.32.37.46.56.56 1.33.88 2.12.88.2 0 .39-.02.59-.06Zm-.59 672.06c1.66 0 3-1.351 3-3 0-1.66-1.34-3-3-3s-3 1.34-3 3c0 1.649 1.34 3 3 3Zm0-56c1.66 0 3-1.34 3-3s-1.34-3-3-3-3 1.34-3 3 1.34 3 3 3Zm0-56c1.66 0 3-1.351 3-3 0-1.66-1.34-3-3-3s-3 1.34-3 3c0 1.649 1.34 3 3 3Zm0-56c1.66 0 3-1.34 3-3s-1.34-3-3-3-3 1.34-3 3 1.34 3 3 3Zm0-56c1.66 0 3-1.351 3-3 0-1.66-1.34-3-3-3s-3 1.34-3 3c0 1.649 1.34 3 3 3Zm0-56c1.66 0 3-1.34 3-3s-1.34-3-3-3-3 1.34-3 3 1.34 3 3 3Zm0-56c1.66 0 3-1.34 3-3s-1.34-3-3-3-3 1.34-3 3 1.34 3 3 3Zm0-56c1.66 0 3-1.34 3-3s-1.34-3-3-3-3 1.34-3 3 1.34 3 3 3Zm0-56c1.66 0 3-1.34 3-3s-1.34-3-3-3-3 1.34-3 3 1.34 3 3 3Zm0-56c1.66 0 3-1.34 3-3s-1.34-3-3-3-3 1.34-3 3 1.34 3 3 3Zm0-56c1.66 0 3-1.34 3-3s-1.34-3-3-3-3 1.34-3 3 1.34 3 3 3Zm0-56c1.66 0 3-1.34 3-3s-1.34-3-3-3-3 1.34-3 3 1.34 3 3 3Zm.59 671.939c.19-.04.38-.09.56-.17.181-.08.351-.17.511-.279.17-.11.319-.23.46-.37.56-.561.88-1.33.88-2.12a3.024 3.024 0 0 0-.231-1.151c-.08-.18-.17-.35-.279-.51a2.37 2.37 0 0 0-.37-.46c-1.11-1.12-3.12-1.12-4.24 0-.14.14-.271.29-.37.46a2.79 2.79 0 0 0-.45 1.071c-.04.199-.06.399-.06.59 0 .79.319 1.56.88 2.12s1.33.88 2.12.88c.189 0 .39-.021.59-.061Zm57.53-728.819c.56-.56.88-1.33.88-2.12s-.32-1.56-.88-2.12c-1.12-1.12-3.13-1.12-4.24 0-.561.56-.88 1.33-.88 2.12s.319 1.56.88 2.12c.56.56 1.33.88 2.12.88s1.56-.32 2.12-.88ZM363 735.006c1.66 0 3-1.351 3-3 0-1.66-1.34-3-3-3s-3 1.34-3 3c0 1.649 1.34 3 3 3Zm0-56c1.66 0 3-1.34 3-3s-1.34-3-3-3-3 1.34-3 3 1.34 3 3 3Zm0-56c1.66 0 3-1.351 3-3 0-1.66-1.34-3-3-3s-3 1.34-3 3c0 1.649 1.34 3 3 3Zm0-56c1.66 0 3-1.34 3-3s-1.34-3-3-3-3 1.34-3 3 1.34 3 3 3Zm0-56c1.66 0 3-1.351 3-3 0-1.66-1.34-3-3-3s-3 1.34-3 3c0 1.649 1.34 3 3 3Zm0-56c1.66 0 3-1.34 3-3s-1.34-3-3-3-3 1.34-3 3 1.34 3 3 3Zm0-56c1.66 0 3-1.34 3-3s-1.34-3-3-3-3 1.34-3 3 1.34 3 3 3Zm0-56c1.66 0 3-1.34 3-3s-1.34-3-3-3-3 1.34-3 3 1.34 3 3 3Zm0-56c1.66 0 3-1.34 3-3s-1.34-3-3-3-3 1.34-3 3 1.34 3 3 3Zm0-56c1.66 0 3-1.34 3-3s-1.34-3-3-3-3 1.34-3 3 1.34 3 3 3Zm0-56c1.66 0 3-1.34 3-3s-1.34-3-3-3-3 1.34-3 3 1.34 3 3 3Zm0-56c1.66 0 3-1.34 3-3s-1.34-3-3-3-3 1.34-3 3 1.34 3 3 3Zm.59 671.939c.19-.04.38-.09.56-.17.181-.08.351-.17.511-.279.17-.11.319-.23.46-.37.56-.561.88-1.33.88-2.12a3.024 3.024 0 0 0-.231-1.151c-.08-.18-.17-.35-.279-.51a2.37 2.37 0 0 0-.37-.46c-1.12-1.12-3.13-1.12-4.24 0-.14.14-.271.29-.37.46a2.79 2.79 0 0 0-.45 1.071c-.04.199-.06.399-.06.59 0 .79.319 1.56.88 2.12s1.33.88 2.12.88c.189 0 .39-.021.59-.061Zm56-727.999a2.78 2.78 0 0 0 1.071-.45 2.762 2.762 0 0 0 .83-.83c.109-.16.199-.33.279-.51.08-.18.13-.37.17-.56.04-.2.061-.39.061-.59s-.021-.39-.061-.59a2.78 2.78 0 0 0-.17-.56c-.08-.18-.17-.35-.279-.51a2.762 2.762 0 0 0-.83-.83c-.16-.11-.33-.2-.511-.28a2.76 2.76 0 0 0-.56-.17 2.93 2.93 0 0 0-1.18 0c-.19.04-.38.09-.561.17-.18.08-.35.17-.52.28-.16.11-.311.23-.45.37s-.271.29-.37.46a2.78 2.78 0 0 0-.45 1.07 2.953 2.953 0 0 0 0 1.18 2.78 2.78 0 0 0 .45 1.07c.1.17.23.32.37.46.14.14.29.26.45.37.17.11.34.2.52.28.181.08.37.13.561.17a2.946 2.946 0 0 0 1.18 0Zm-.59 672.06c1.66 0 3-1.351 3-3 0-1.66-1.34-3-3-3s-3 1.34-3 3c0 1.649 1.34 3 3 3Zm0-56c1.66 0 3-1.34 3-3s-1.34-3-3-3-3 1.34-3 3 1.34 3 3 3Zm0-56c1.66 0 3-1.351 3-3 0-1.66-1.34-3-3-3s-3 1.34-3 3c0 1.649 1.34 3 3 3Zm0-56c1.66 0 3-1.34 3-3s-1.34-3-3-3-3 1.34-3 3 1.34 3 3 3Zm0-56c1.66 0 3-1.351 3-3 0-1.66-1.34-3-3-3s-3 1.34-3 3c0 1.649 1.34 3 3 3Zm0-56c1.66 0 3-1.34 3-3s-1.34-3-3-3-3 1.34-3 3 1.34 3 3 3Zm0-56c1.66 0 3-1.34 3-3s-1.34-3-3-3-3 1.34-3 3 1.34 3 3 3Zm0-56c1.66 0 3-1.34 3-3s-1.34-3-3-3-3 1.34-3 3 1.34 3 3 3Zm0-56c1.66 0 3-1.34 3-3s-1.34-3-3-3-3 1.34-3 3 1.34 3 3 3Zm0-56c1.66 0 3-1.34 3-3s-1.34-3-3-3-3 1.34-3 3 1.34 3 3 3Zm0-56c1.66 0 3-1.34 3-3s-1.34-3-3-3-3 1.34-3 3 1.34 3 3 3Zm0-56c1.66 0 3-1.34 3-3s-1.34-3-3-3-3 1.34-3 3 1.34 3 3 3Zm2.12 671.12c.56-.561.88-1.33.88-2.12a3.024 3.024 0 0 0-.231-1.151c-.08-.18-.17-.35-.279-.51-.11-.17-.23-.32-.37-.46-1.11-1.12-3.13-1.12-4.24 0-.14.14-.271.29-.37.46a2.79 2.79 0 0 0-.45 1.071c-.04.199-.06.399-.06.59 0 .79.319 1.56.88 2.12s1.33.88 2.12.88 1.56-.32 2.12-.88Zm57-728c.56-.56.88-1.33.88-2.12 0-.2-.021-.39-.061-.59-.04-.19-.1-.38-.17-.56-.08-.18-.17-.35-.279-.52a3.012 3.012 0 0 0-3.641-1.1c-.18.07-.35.17-.52.28-.16.1-.311.23-.45.37s-.271.29-.37.45c-.11.17-.2.34-.28.52-.08.18-.13.37-.17.56-.04.2-.06.39-.06.59a3.01 3.01 0 0 0 1.85 2.77c.181.08.37.13.561.17.199.04.399.06.59.06.79 0 1.56-.32 2.12-.88ZM476 735.006c1.66 0 3-1.351 3-3 0-1.66-1.34-3-3-3s-3 1.34-3 3c0 1.649 1.34 3 3 3Zm0-56c1.66 0 3-1.34 3-3s-1.34-3-3-3-3 1.34-3 3 1.34 3 3 3Zm0-56c1.66 0 3-1.351 3-3 0-1.66-1.34-3-3-3s-3 1.34-3 3c0 1.649 1.34 3 3 3Zm0-56c1.66 0 3-1.34 3-3s-1.34-3-3-3-3 1.34-3 3 1.34 3 3 3Zm0-56c1.66 0 3-1.351 3-3 0-1.66-1.34-3-3-3s-3 1.34-3 3c0 1.649 1.34 3 3 3Zm0-56c1.66 0 3-1.34 3-3s-1.34-3-3-3-3 1.34-3 3 1.34 3 3 3Zm0-56c1.66 0 3-1.34 3-3s-1.34-3-3-3-3 1.34-3 3 1.34 3 3 3Zm0-56c1.66 0 3-1.34 3-3s-1.34-3-3-3-3 1.34-3 3 1.34 3 3 3Zm0-56c1.66 0 3-1.34 3-3s-1.34-3-3-3-3 1.34-3 3 1.34 3 3 3Zm0-56c1.66 0 3-1.34 3-3s-1.34-3-3-3-3 1.34-3 3 1.34 3 3 3Zm0-56c1.66 0 3-1.34 3-3s-1.34-3-3-3-3 1.34-3 3 1.34 3 3 3Zm0-56c1.66 0 3-1.34 3-3s-1.34-3-3-3-3 1.34-3 3 1.34 3 3 3Zm2.12 671.12c.56-.561.88-1.33.88-2.12 0-.19-.021-.391-.061-.59a2.809 2.809 0 0 0-.449-1.071c-.11-.17-.23-.32-.37-.46a3.01 3.01 0 0 0-3.271-.65c-.18.07-.35.17-.52.28-.16.1-.311.23-.45.37s-.271.29-.38.46c-.101.16-.2.33-.271.51-.08.181-.13.37-.17.561-.04.199-.06.399-.06.59 0 .79.319 1.56.88 2.12.14.14.29.27.46.37a2.79 2.79 0 0 0 1.071.449c.199.04.399.061.59.061.79 0 1.56-.32 2.12-.88Zm55-728c.56-.56.88-1.33.88-2.12s-.32-1.56-.88-2.12c-.7-.7-1.73-1.02-2.71-.82-.19.04-.38.1-.561.17-.18.08-.35.17-.52.28a3.01 3.01 0 0 0-1.33 2.49c0 .79.319 1.56.88 2.12.56.56 1.33.88 2.12.88s1.56-.32 2.12-.88ZM531 735.006c1.66 0 3-1.351 3-3 0-1.66-1.34-3-3-3s-3 1.34-3 3c0 1.649 1.34 3 3 3Zm0-56c1.66 0 3-1.34 3-3s-1.34-3-3-3-3 1.34-3 3 1.34 3 3 3Zm0-56c1.66 0 3-1.34 3-3s-1.34-3-3-3-3 1.34-3 3 1.34 3 3 3Zm0-56c1.66 0 3-1.34 3-3s-1.34-3-3-3-3 1.34-3 3 1.34 3 3 3Zm0-56c1.66 0 3-1.34 3-3s-1.34-3-3-3-3 1.34-3 3 1.34 3 3 3Zm0-56c1.66 0 3-1.34 3-3s-1.34-3-3-3-3 1.34-3 3 1.34 3 3 3Zm0-56c1.66 0 3-1.34 3-3s-1.34-3-3-3-3 1.34-3 3 1.34 3 3 3Zm0-56c1.66 0 3-1.34 3-3s-1.34-3-3-3-3 1.34-3 3 1.34 3 3 3Zm0-56c1.66 0 3-1.34 3-3s-1.34-3-3-3-3 1.34-3 3 1.34 3 3 3Zm0-56c1.66 0 3-1.34 3-3s-1.34-3-3-3-3 1.34-3 3 1.34 3 3 3Zm0-56c1.66 0 3-1.34 3-3s-1.34-3-3-3-3 1.34-3 3 1.34 3 3 3Zm0-56c1.66 0 3-1.34 3-3s-1.34-3-3-3-3 1.34-3 3 1.34 3 3 3Zm.59 671.939c.19-.04.38-.09.56-.17.181-.08.351-.17.511-.279.17-.11.319-.23.46-.37.56-.561.88-1.33.88-2.12 0-.19-.021-.391-.061-.59a2.809 2.809 0 0 0-.449-1.071c-.11-.17-.23-.32-.37-.46a2.327 2.327 0 0 0-.46-.37c-.16-.11-.33-.21-.511-.28a3.003 3.003 0 0 0-3.27.65c-.14.14-.271.29-.37.46a2.79 2.79 0 0 0-.45 1.071c-.04.199-.06.399-.06.59a3.01 3.01 0 0 0 1.33 2.49c.17.109.34.199.52.279.181.08.37.13.561.17.199.04.399.061.59.061.2 0 .39-.021.59-.061Zm58.53-728.82c.56-.56.88-1.33.88-2.12a3.015 3.015 0 0 0-1.85-2.77 3.012 3.012 0 0 0-3.27.65c-.56.56-.88 1.33-.88 2.12s.32 1.56.88 2.12 1.33.88 2.12.88 1.56-.32 2.12-.88ZM588 735.005c1.66 0 3-1.351 3-3 0-1.66-1.34-3-3-3s-3 1.34-3 3c0 1.649 1.34 3 3 3Zm0-56c1.66 0 3-1.34 3-3s-1.34-3-3-3-3 1.34-3 3 1.34 3 3 3Zm0-56c1.66 0 3-1.351 3-3 0-1.66-1.34-3-3-3s-3 1.34-3 3c0 1.649 1.34 3 3 3Zm0-56c1.66 0 3-1.34 3-3s-1.34-3-3-3-3 1.34-3 3 1.34 3 3 3Zm0-56c1.66 0 3-1.351 3-3 0-1.66-1.34-3-3-3s-3 1.34-3 3c0 1.649 1.34 3 3 3Zm0-56c1.66 0 3-1.34 3-3s-1.34-3-3-3-3 1.34-3 3 1.34 3 3 3Zm0-56c1.66 0 3-1.34 3-3s-1.34-3-3-3-3 1.34-3 3 1.34 3 3 3Zm0-56c1.66 0 3-1.34 3-3s-1.34-3-3-3-3 1.34-3 3 1.34 3 3 3Zm0-56c1.66 0 3-1.34 3-3s-1.34-3-3-3-3 1.34-3 3 1.34 3 3 3Zm0-56c1.66 0 3-1.34 3-3s-1.34-3-3-3-3 1.34-3 3 1.34 3 3 3Zm0-56c1.66 0 3-1.34 3-3s-1.34-3-3-3-3 1.34-3 3 1.34 3 3 3Zm0-56c1.66 0 3-1.34 3-3s-1.34-3-3-3-3 1.34-3 3 1.34 3 3 3Zm2.12 671.12c.56-.561.88-1.33.88-2.12a3.021 3.021 0 0 0-.23-1.151c-.08-.18-.17-.35-.28-.51-.1-.17-.23-.32-.37-.46-1.12-1.12-3.12-1.12-4.24 0-.14.14-.27.29-.37.46-.11.16-.2.33-.28.51a3.014 3.014 0 0 0-.23 1.151c0 .79.32 1.56.88 2.12s1.33.88 2.12.88 1.56-.32 2.12-.88Zm54.47-727.18c.19-.04.38-.1.56-.17.18-.08.35-.17.52-.28.16-.11.31-.23.45-.37.14-.14.26-.29.37-.45.11-.17.2-.34.28-.52.07-.18.13-.37.17-.56a2.953 2.953 0 0 0-.17-1.74c-.08-.18-.17-.35-.28-.52a3.16 3.16 0 0 0-.37-.45c-.14-.14-.29-.27-.45-.37a2.917 2.917 0 0 0-1.08-.45 2.93 2.93 0 0 0-1.18 0 2.917 2.917 0 0 0-1.08.45c-.16.1-.31.23-.45.37s-.27.29-.37.45a2.917 2.917 0 0 0-.45 1.08 2.953 2.953 0 0 0 0 1.18 2.917 2.917 0 0 0 .45 1.08c.1.16.23.31.37.45.14.14.29.26.45.37.17.11.34.2.52.28a3.03 3.03 0 0 0 1.15.23c.2 0 .39-.02.59-.06Zm-.59 672.06c1.66 0 3-1.351 3-3 0-1.66-1.34-3-3-3s-3 1.34-3 3c0 1.649 1.34 3 3 3Zm0-56c1.66 0 3-1.34 3-3s-1.34-3-3-3-3 1.34-3 3 1.34 3 3 3Zm0-56c1.66 0 3-1.351 3-3 0-1.66-1.34-3-3-3s-3 1.34-3 3c0 1.649 1.34 3 3 3Zm0-56c1.66 0 3-1.34 3-3s-1.34-3-3-3-3 1.34-3 3 1.34 3 3 3Zm0-56c1.66 0 3-1.351 3-3 0-1.66-1.34-3-3-3s-3 1.34-3 3c0 1.649 1.34 3 3 3Zm0-56c1.66 0 3-1.34 3-3s-1.34-3-3-3-3 1.34-3 3 1.34 3 3 3Zm0-56c1.66 0 3-1.34 3-3s-1.34-3-3-3-3 1.34-3 3 1.34 3 3 3Zm0-56c1.66 0 3-1.34 3-3s-1.34-3-3-3-3 1.34-3 3 1.34 3 3 3Zm0-56c1.66 0 3-1.34 3-3s-1.34-3-3-3-3 1.34-3 3 1.34 3 3 3Zm0-56c1.66 0 3-1.34 3-3s-1.34-3-3-3-3 1.34-3 3 1.34 3 3 3Zm0-56c1.66 0 3-1.34 3-3s-1.34-3-3-3-3 1.34-3 3 1.34 3 3 3Zm0-56c1.66 0 3-1.34 3-3s-1.34-3-3-3-3 1.34-3 3 1.34 3 3 3Zm.59 671.939c.19-.04.38-.09.56-.17.18-.08.35-.17.52-.279a3.016 3.016 0 0 0 1.33-2.49c0-.19-.02-.391-.06-.59-.04-.19-.09-.38-.17-.561-.07-.18-.17-.35-.27-.51-.11-.17-.24-.32-.38-.46s-.29-.271-.45-.37a2.917 2.917 0 0 0-1.08-.45c-.98-.2-2.02.12-2.71.82-.14.14-.27.29-.37.46a2.79 2.79 0 0 0-.45 1.071c-.04.199-.06.399-.06.59a3.015 3.015 0 0 0 1.33 2.49c.17.109.34.199.52.279.18.08.37.13.56.17.2.04.39.061.59.061s.39-.021.59-.061Zm56-728a2.78 2.78 0 0 0 1.07-.45c.17-.11.32-.23.46-.37.56-.56.88-1.33.88-2.12s-.32-1.56-.88-2.12c-.14-.14-.29-.26-.46-.37-.16-.11-.33-.2-.51-.28-.18-.07-.37-.13-.56-.17a2.93 2.93 0 0 0-1.18 0c-.19.04-.38.1-.56.17-.18.08-.35.17-.52.28a3.015 3.015 0 0 0-1.33 2.49c0 .2.02.39.06.59a2.917 2.917 0 0 0 .45 1.08c.1.16.23.31.37.45.14.14.29.27.45.37a2.917 2.917 0 0 0 1.08.45 2.953 2.953 0 0 0 1.18 0Zm-.59 672.06c1.66 0 3-1.351 3-3 0-1.66-1.34-3-3-3s-3 1.34-3 3c0 1.649 1.34 3 3 3Zm0-56c1.66 0 3-1.34 3-3s-1.34-3-3-3-3 1.34-3 3 1.34 3 3 3Zm0-56c1.66 0 3-1.351 3-3 0-1.66-1.34-3-3-3s-3 1.34-3 3c0 1.649 1.34 3 3 3Zm0-56c1.66 0 3-1.34 3-3s-1.34-3-3-3-3 1.34-3 3 1.34 3 3 3Zm0-56c1.66 0 3-1.351 3-3 0-1.66-1.34-3-3-3s-3 1.34-3 3c0 1.649 1.34 3 3 3Zm0-56c1.66 0 3-1.34 3-3s-1.34-3-3-3-3 1.34-3 3 1.34 3 3 3Zm0-56c1.66 0 3-1.34 3-3s-1.34-3-3-3-3 1.34-3 3 1.34 3 3 3Zm0-56c1.66 0 3-1.34 3-3s-1.34-3-3-3-3 1.34-3 3 1.34 3 3 3Zm0-56c1.66 0 3-1.34 3-3s-1.34-3-3-3-3 1.34-3 3 1.34 3 3 3Zm0-56c1.66 0 3-1.34 3-3s-1.34-3-3-3-3 1.34-3 3 1.34 3 3 3Zm0-56c1.66 0 3-1.34 3-3s-1.34-3-3-3-3 1.34-3 3 1.34 3 3 3Zm0-56c1.66 0 3-1.34 3-3s-1.34-3-3-3-3 1.34-3 3 1.34 3 3 3Zm.59 671.939c.19-.04.38-.09.56-.17.18-.08.35-.17.52-.279a3.016 3.016 0 0 0 1.33-2.49c0-.19-.02-.391-.06-.59a2.809 2.809 0 0 0-.45-1.071c-.1-.17-.23-.32-.37-.46-.14-.14-.29-.271-.45-.37a2.917 2.917 0 0 0-1.08-.45 2.93 2.93 0 0 0-1.18 0 2.917 2.917 0 0 0-1.08.45c-.16.1-.31.23-.45.37s-.26.29-.37.46a2.79 2.79 0 0 0-.45 1.071c-.04.199-.06.399-.06.59 0 .79.32 1.56.88 2.12s1.33.88 2.12.88c.2 0 .39-.021.59-.061Zm57.53-728.82c.56-.56.88-1.33.88-2.12 0-.2-.02-.39-.06-.59a2.917 2.917 0 0 0-.45-1.08c-.1-.16-.23-.31-.37-.45-1.12-1.12-3.12-1.12-4.24 0-.14.14-.26.29-.37.45-.11.17-.2.34-.28.52-.07.18-.13.37-.17.56-.04.2-.06.39-.06.59 0 .79.32 1.56.88 2.12s1.33.88 2.12.88 1.56-.32 2.12-.88ZM756 735.003c1.66 0 3-1.351 3-3 0-1.66-1.34-3-3-3s-3 1.34-3 3c0 1.649 1.34 3 3 3Zm0-56c1.66 0 3-1.34 3-3s-1.34-3-3-3-3 1.34-3 3 1.34 3 3 3Zm0-56c1.66 0 3-1.351 3-3 0-1.66-1.34-3-3-3s-3 1.34-3 3c0 1.649 1.34 3 3 3Zm0-56c1.66 0 3-1.34 3-3s-1.34-3-3-3-3 1.34-3 3 1.34 3 3 3Zm0-56c1.66 0 3-1.351 3-3 0-1.66-1.34-3-3-3s-3 1.34-3 3c0 1.649 1.34 3 3 3Zm0-56c1.66 0 3-1.34 3-3s-1.34-3-3-3-3 1.34-3 3 1.34 3 3 3Zm0-56c1.66 0 3-1.34 3-3s-1.34-3-3-3-3 1.34-3 3 1.34 3 3 3Zm0-56c1.66 0 3-1.34 3-3s-1.34-3-3-3-3 1.34-3 3 1.34 3 3 3Zm0-56c1.66 0 3-1.34 3-3s-1.34-3-3-3-3 1.34-3 3 1.34 3 3 3Zm0-56c1.66 0 3-1.34 3-3s-1.34-3-3-3-3 1.34-3 3 1.34 3 3 3Zm0-56c1.66 0 3-1.34 3-3s-1.34-3-3-3-3 1.34-3 3 1.34 3 3 3Zm0-56c1.66 0 3-1.34 3-3s-1.34-3-3-3-3 1.34-3 3 1.34 3 3 3Zm2.12 671.12c.56-.561.88-1.33.88-2.12 0-.19-.02-.391-.06-.59a2.809 2.809 0 0 0-.45-1.071c-.1-.17-.23-.32-.37-.46-.14-.14-.29-.271-.45-.37a2.917 2.917 0 0 0-1.08-.45 2.93 2.93 0 0 0-1.18 0 2.78 2.78 0 0 0-1.07.45 2.762 2.762 0 0 0-.83.83 2.79 2.79 0 0 0-.45 1.071c-.04.199-.06.399-.06.59 0 .79.32 1.56.88 2.12.14.14.29.26.46.37.16.109.33.199.51.279.18.08.37.13.56.17.2.04.4.061.59.061.79 0 1.56-.32 2.12-.88Zm57-728.006c.56-.56.88-1.33.88-2.12a3.015 3.015 0 0 0-1.85-2.77 3.012 3.012 0 0 0-3.27.65c-.56.56-.88 1.33-.88 2.12s.32 1.56.88 2.12 1.33.88 2.12.88 1.56-.32 2.12-.88ZM813 734.997c1.66 0 3-1.351 3-3 0-1.66-1.34-3-3-3s-3 1.34-3 3c0 1.649 1.34 3 3 3Zm0-56c1.66 0 3-1.34 3-3s-1.34-3-3-3-3 1.34-3 3 1.34 3 3 3Zm0-56c1.66 0 3-1.351 3-3 0-1.66-1.34-3-3-3s-3 1.34-3 3c0 1.649 1.34 3 3 3Zm0-56c1.66 0 3-1.34 3-3s-1.34-3-3-3-3 1.34-3 3 1.34 3 3 3Zm0-56c1.66 0 3-1.351 3-3 0-1.66-1.34-3-3-3s-3 1.34-3 3c0 1.649 1.34 3 3 3Zm0-56c1.66 0 3-1.34 3-3s-1.34-3-3-3-3 1.34-3 3 1.34 3 3 3Zm0-56c1.66 0 3-1.34 3-3s-1.34-3-3-3-3 1.34-3 3 1.34 3 3 3Zm0-56c1.66 0 3-1.34 3-3s-1.34-3-3-3-3 1.34-3 3 1.34 3 3 3Zm0-56c1.66 0 3-1.34 3-3s-1.34-3-3-3-3 1.34-3 3 1.34 3 3 3Zm0-56c1.66 0 3-1.34 3-3s-1.34-3-3-3-3 1.34-3 3 1.34 3 3 3Zm0-56c1.66 0 3-1.34 3-3s-1.34-3-3-3-3 1.34-3 3 1.34 3 3 3Zm0-56c1.66 0 3-1.34 3-3s-1.34-3-3-3-3 1.34-3 3 1.34 3 3 3Zm2.12 671.12c.56-.561.88-1.33.88-2.12a3.021 3.021 0 0 0-.23-1.151c-.08-.18-.17-.35-.28-.51-.1-.17-.23-.32-.37-.46-1.12-1.12-3.12-1.12-4.24 0-.14.14-.27.29-.37.46-.11.16-.2.33-.28.51a3.014 3.014 0 0 0-.23 1.151c0 .79.32 1.56.88 2.12s1.33.88 2.12.88 1.56-.32 2.12-.88Zm54.47-727.18c.19-.04.38-.1.56-.17.18-.08.35-.17.52-.28.16-.11.31-.23.45-.37.14-.14.26-.29.37-.45.11-.17.2-.34.28-.52.07-.18.13-.37.17-.56a2.953 2.953 0 0 0-.17-1.74c-.08-.18-.17-.35-.28-.52a3.16 3.16 0 0 0-.37-.45c-.14-.14-.29-.27-.45-.37a2.917 2.917 0 0 0-1.08-.45 2.93 2.93 0 0 0-1.18 0 2.917 2.917 0 0 0-1.08.45c-.16.1-.31.23-.45.37s-.27.29-.37.45a2.917 2.917 0 0 0-.45 1.08 2.953 2.953 0 0 0 0 1.18 2.917 2.917 0 0 0 .45 1.08c.1.16.23.31.37.45.14.14.29.26.45.37.17.11.34.2.52.28a3.03 3.03 0 0 0 1.15.23c.2 0 .39-.02.59-.06Zm-.59 672.06c1.66 0 3-1.351 3-3 0-1.66-1.34-3-3-3s-3 1.34-3 3c0 1.649 1.34 3 3 3Zm0-56c1.66 0 3-1.34 3-3s-1.34-3-3-3-3 1.34-3 3 1.34 3 3 3Zm0-56c1.66 0 3-1.351 3-3 0-1.66-1.34-3-3-3s-3 1.34-3 3c0 1.649 1.34 3 3 3Zm0-56c1.66 0 3-1.34 3-3s-1.34-3-3-3-3 1.34-3 3 1.34 3 3 3Zm0-56c1.66 0 3-1.351 3-3 0-1.66-1.34-3-3-3s-3 1.34-3 3c0 1.649 1.34 3 3 3Zm0-56c1.66 0 3-1.34 3-3s-1.34-3-3-3-3 1.34-3 3 1.34 3 3 3Zm0-56c1.66 0 3-1.34 3-3s-1.34-3-3-3-3 1.34-3 3 1.34 3 3 3Zm0-56c1.66 0 3-1.34 3-3s-1.34-3-3-3-3 1.34-3 3 1.34 3 3 3Zm0-56c1.66 0 3-1.34 3-3s-1.34-3-3-3-3 1.34-3 3 1.34 3 3 3Zm0-56c1.66 0 3-1.34 3-3s-1.34-3-3-3-3 1.34-3 3 1.34 3 3 3Zm0-56c1.66 0 3-1.34 3-3s-1.34-3-3-3-3 1.34-3 3 1.34 3 3 3Zm0-56c1.66 0 3-1.34 3-3s-1.34-3-3-3-3 1.34-3 3 1.34 3 3 3Zm.59 671.939c.19-.04.38-.09.56-.17.18-.08.35-.17.52-.279a3.016 3.016 0 0 0 1.33-2.49c0-.19-.02-.391-.06-.59-.04-.19-.09-.38-.17-.561-.07-.18-.17-.35-.27-.51-.11-.17-.24-.32-.38-.46s-.29-.271-.45-.37a2.917 2.917 0 0 0-1.08-.45c-.98-.2-2.02.12-2.71.82-.14.14-.27.29-.37.46a2.79 2.79 0 0 0-.45 1.071c-.04.199-.06.399-.06.59a3.015 3.015 0 0 0 1.33 2.49c.17.109.34.199.52.279.18.08.37.13.56.17.2.04.39.061.59.061s.39-.021.59-.061Zm56-728a2.78 2.78 0 0 0 1.07-.45c.17-.11.32-.23.46-.37.56-.56.88-1.33.88-2.12s-.32-1.56-.88-2.12c-.14-.14-.29-.26-.46-.37-.16-.11-.33-.2-.51-.28-.18-.07-.37-.13-.56-.17a2.93 2.93 0 0 0-1.18 0c-.19.04-.38.1-.56.17-.18.08-.35.17-.52.28a3.015 3.015 0 0 0-1.33 2.49c0 .2.02.39.06.59a2.917 2.917 0 0 0 .45 1.08c.1.16.23.31.37.45.14.14.29.27.45.37a2.917 2.917 0 0 0 1.08.45 2.953 2.953 0 0 0 1.18 0Zm-.59 672.06c1.66 0 3-1.351 3-3 0-1.66-1.34-3-3-3s-3 1.34-3 3c0 1.649 1.34 3 3 3Zm0-56c1.66 0 3-1.34 3-3s-1.34-3-3-3-3 1.34-3 3 1.34 3 3 3Zm0-56c1.66 0 3-1.351 3-3 0-1.66-1.34-3-3-3s-3 1.34-3 3c0 1.649 1.34 3 3 3Zm0-56c1.66 0 3-1.34 3-3s-1.34-3-3-3-3 1.34-3 3 1.34 3 3 3Zm0-56c1.66 0 3-1.351 3-3 0-1.66-1.34-3-3-3s-3 1.34-3 3c0 1.649 1.34 3 3 3Zm0-56c1.66 0 3-1.34 3-3s-1.34-3-3-3-3 1.34-3 3 1.34 3 3 3Zm0-56c1.66 0 3-1.34 3-3s-1.34-3-3-3-3 1.34-3 3 1.34 3 3 3Zm0-56c1.66 0 3-1.34 3-3s-1.34-3-3-3-3 1.34-3 3 1.34 3 3 3Zm0-56c1.66 0 3-1.34 3-3s-1.34-3-3-3-3 1.34-3 3 1.34 3 3 3Zm0-56c1.66 0 3-1.34 3-3s-1.34-3-3-3-3 1.34-3 3 1.34 3 3 3Zm0-56c1.66 0 3-1.34 3-3s-1.34-3-3-3-3 1.34-3 3 1.34 3 3 3Zm0-56c1.66 0 3-1.34 3-3s-1.34-3-3-3-3 1.34-3 3 1.34 3 3 3Zm.59 671.939c.19-.04.38-.09.56-.17.18-.08.35-.17.52-.279a3.016 3.016 0 0 0 1.33-2.49c0-.19-.02-.391-.06-.59a2.809 2.809 0 0 0-.45-1.071c-.1-.17-.23-.32-.37-.46-.14-.14-.29-.271-.45-.37a2.917 2.917 0 0 0-1.08-.45 2.93 2.93 0 0 0-1.18 0 2.917 2.917 0 0 0-1.08.45c-.16.1-.31.23-.45.37s-.26.29-.37.46a2.79 2.79 0 0 0-.45 1.071c-.04.199-.06.399-.06.59 0 .79.32 1.56.88 2.12s1.33.88 2.12.88c.2 0 .39-.021.59-.061Zm56-728a2.78 2.78 0 0 0 1.07-.45c.17-.11.32-.23.46-.37.56-.56.88-1.33.88-2.12s-.32-1.56-.88-2.12c-.14-.14-.29-.26-.46-.37-.16-.11-.33-.2-.51-.28-.18-.07-.37-.13-.56-.17a2.93 2.93 0 0 0-1.18 0c-.19.04-.38.1-.56.17-.18.08-.35.17-.52.28a3.015 3.015 0 0 0-1.33 2.49c0 .2.02.39.06.59a2.917 2.917 0 0 0 .45 1.08c.1.16.23.31.37.45.14.14.29.27.45.37a2.917 2.917 0 0 0 1.08.45 2.953 2.953 0 0 0 1.18 0Zm-.59 672.06c1.66 0 3-1.351 3-3 0-1.66-1.34-3-3-3s-3 1.34-3 3c0 1.649 1.34 3 3 3Zm0-56c1.66 0 3-1.34 3-3s-1.34-3-3-3-3 1.34-3 3 1.34 3 3 3Zm0-56c1.66 0 3-1.351 3-3 0-1.66-1.34-3-3-3s-3 1.34-3 3c0 1.649 1.34 3 3 3Zm0-56c1.66 0 3-1.34 3-3s-1.34-3-3-3-3 1.34-3 3 1.34 3 3 3Zm0-56c1.66 0 3-1.351 3-3 0-1.66-1.34-3-3-3s-3 1.34-3 3c0 1.649 1.34 3 3 3Zm0-56c1.66 0 3-1.34 3-3s-1.34-3-3-3-3 1.34-3 3 1.34 3 3 3Zm0-56c1.66 0 3-1.34 3-3s-1.34-3-3-3-3 1.34-3 3 1.34 3 3 3Zm0-56c1.66 0 3-1.34 3-3s-1.34-3-3-3-3 1.34-3 3 1.34 3 3 3Zm0-56c1.66 0 3-1.34 3-3s-1.34-3-3-3-3 1.34-3 3 1.34 3 3 3Zm0-56c1.66 0 3-1.34 3-3s-1.34-3-3-3-3 1.34-3 3 1.34 3 3 3Zm0-56c1.66 0 3-1.34 3-3s-1.34-3-3-3-3 1.34-3 3 1.34 3 3 3Zm0-56c1.66 0 3-1.34 3-3s-1.34-3-3-3-3 1.34-3 3 1.34 3 3 3Zm.59 671.939c.19-.04.38-.09.56-.17.18-.08.35-.17.52-.279a3.016 3.016 0 0 0 1.33-2.49c0-.19-.02-.391-.06-.59a2.809 2.809 0 0 0-.45-1.071c-.1-.17-.23-.32-.37-.46-.14-.14-.29-.271-.45-.37a2.917 2.917 0 0 0-1.08-.45 2.93 2.93 0 0 0-1.18 0 2.917 2.917 0 0 0-1.08.45c-.16.1-.31.23-.45.37s-.26.29-.37.46a2.79 2.79 0 0 0-.45 1.071c-.04.199-.06.399-.06.59 0 .79.32 1.56.88 2.12s1.33.88 2.12.88c.2 0 .39-.021.59-.061Z"/><path fill="none" stroke="url(#f)" stroke-miterlimit="10" stroke-width="2" d="M644 59.006v781"/><path fill="none" stroke="url(#a)" stroke-miterlimit="10" stroke-width="2" d="M139 85.028v480.978"/><path fill="none" stroke="#c1c7cd" stroke-miterlimit="10" stroke-width="2" d="M476 406.943v433.063"/><path fill="#be95ff" d="M640 504.13h8v8h-8z"/><path fill="none" stroke="url(#g)" stroke-miterlimit="10" d="M532 508.13h110.219"/><path fill="none" stroke="url(#c)" stroke-miterlimit="10" d="M753.219 508.13H643"/><path fill="none" stroke="#c1c7cd" stroke-miterlimit="10" stroke-width="2" d="M139 564.371c0 61.548 50.144 111.442 112 111.442s112-49.894 112-111.442v-45.365M644 421.892c0-77.495-62.904-140.316-140.5-140.316S363 344.398 363 421.892v418.114"/><path fill="#d4bbff" d="m429.75 395.614 46.89-46.11 46.11 46.89-46.89 46.11z"/><circle cx="476.25" cy="396" r="4.36" fill="#fff"/><circle cx="363" cy="508" r="24" fill="#dde1e6" opacity=".8"/><circle cx="363" cy="508" r="8" fill="#a2a9b0"/><circle cx="476" cy="732" r="24" fill="#dde1e6" opacity=".8"/><circle cx="476" cy="732" r="8" fill="#a2a9b0"/><path fill="url(#d)" d="M476 603h87v34h-87z"/><circle cx="563" cy="620" r="17" fill="#82cfff"/><circle cx="588" cy="620" r="17" fill="#33b1ff" opacity=".8"/><path fill="#4589ff" d="M459 619.97 475.971 603l16.97 16.97-16.97 16.97z"/><circle cx="475.971" cy="619.971" r="2" fill="#fff"/><circle cx="644" cy="173.006" r="8" fill="#6929c4"/><circle cx="644" cy="201" r="8" fill="#a56eff"/><circle cx="644" cy="228" r="8" fill="#be95ff"/><circle cx="644" cy="255" r="8" fill="#d4bbff"/><circle cx="139" cy="454" r="8" fill="#6929c4"/><circle cx="139" cy="481" r="8" fill="#a56eff"/><circle cx="139" cy="508" r="8" fill="#be95ff"/><circle cx="139" cy="535" r="8" fill="#d4bbff"/><circle cx="252.93" cy="674.935" r="5.31" fill="#a56eff"/><circle cx="252.93" cy="674.935" r="10.62" fill="none" stroke="#a56eff" stroke-miterlimit="10" opacity=".5"/><circle cx="252.93" cy="674.935" r="15.93" fill="none" stroke="#be95ff" stroke-miterlimit="10" opacity=".5"/><circle cx="644.07" cy="733.076" r="5.31" fill="#a56eff"/><circle cx="644.07" cy="733.076" r="10.62" fill="none" stroke="#a56eff" stroke-miterlimit="10" opacity=".5"/><circle cx="644.07" cy="733.076" r="15.93" fill="none" stroke="#be95ff" stroke-miterlimit="10" opacity=".5"/><circle cx="475.93" cy="507.07" r="5.31" fill="#a56eff"/><circle cx="475.93" cy="507.07" r="10.62" fill="none" stroke="#a56eff" stroke-miterlimit="10" opacity=".5"/><circle cx="475.93" cy="507.07" r="15.93" fill="none" stroke="#be95ff" stroke-miterlimit="10" opacity=".5"/><path fill="none" stroke="url(#h)" stroke-miterlimit="10" stroke-width="2" d="M644 450.984c0 62.272 50.368 112.754 112.5 112.754S869 513.256 869 450.984V171"/><circle cx="363" cy="451.006" r="6" fill="#a56eff"/><rect width="132" height="12" x="297" y="730.006" fill="url(#b)" rx="5.895" ry="5.895" transform="rotate(-90 363 736.006)"/><rect width="132" height="12" x="803" y="340" fill="url(#i)" rx="5.895" ry="5.895" transform="rotate(-90 869 346)"/><circle cx="756" cy="564" r="6" fill="#a56eff"/><circle cx="644" cy="397" r="85" fill="#e0e0e0" opacity=".5"/><circle cx="644.295" cy="394.506" r="37.589" fill="#c6c6c6" opacity=".5"/><path fill="#8a3ffc" d="m625.97 397 18-18 18 18-18 18z"/><circle cx="643.971" cy="397" r="3.375" fill="#fff"/><path fill="#8a3ffc" d="m587 396.971 18-18 18 18-18 18z"/><circle cx="605" cy="396.971" r="3.375" fill="#fff"/><path fill="#a56eff" d="m526.694 396.417 28.893-28.413L584 396.898l-28.893 28.413z"/><path fill="#be95ff" d="M135 224h8v8h-8z"/><path fill="none" stroke="url(#j)" stroke-miterlimit="10" d="M27 228h110.219"/><path fill="none" stroke="url(#k)" stroke-miterlimit="10" d="M248.219 228H138"/><path fill="url(#l)" d="M139 323h87v34h-87z"/><circle cx="226" cy="340" r="17" fill="#82cfff"/><circle cx="251" cy="340" r="17" fill="#33b1ff" opacity=".8"/><path fill="#4589ff" d="M122 339.97 138.972 323l16.97 16.97-16.97 16.971z"/><circle cx="138.971" cy="339.971" r="2" fill="#fff"/></svg>